<?xml version="1.0" standalone="no"?>
<!DOCTYPE svg PUBLIC "-//W3C//DTD SVG 20010904//EN"
 "http://www.w3.org/TR/2001/REC-SVG-20010904/DTD/svg10.dtd">
<svg version="1.0" xmlns="http://www.w3.org/2000/svg"
 width="640.000000pt" height="256.000000pt" viewBox="0 0 640.000000 256.000000"
 preserveAspectRatio="xMidYMid meet">
<metadata>
Created by potrace 1.16, written by Peter Selinger 2001-2019
</metadata>
<g transform="translate(0.000000,256.000000) scale(0.100000,-0.100000)"
fill="#000000" stroke="none">
<path d="M1114 2366 c-135 -35 -275 -139 -339 -252 l-28 -50 -76 0 c-85 0
-129 -16 -181 -66 -33 -31 -69 -100 -70 -130 0 -13 -8 -18 -26 -18 -14 0 -59
-14 -100 -31 -127 -53 -231 -165 -274 -295 -18 -55 -21 -82 -18 -182 4 -135
23 -193 89 -282 102 -136 243 -200 442 -200 52 0 98 3 100 8 3 4 3 19 0 35 -5
26 -7 27 -72 27 -88 1 -208 23 -257 48 -155 80 -243 232 -231 406 14 218 151
362 380 401 34 5 37 9 37 39 0 50 40 118 86 143 47 28 119 30 169 6 19 -9 36
-15 37 -12 2 2 19 35 38 74 103 205 334 313 559 260 89 -21 155 -59 226 -130
89 -89 145 -218 145 -335 0 -42 1 -43 75 -55 114 -19 225 -107 282 -223 37
-75 38 -78 38 -192 0 -114 -1 -117 -38 -192 -57 -117 -170 -206 -285 -224 -32
-5 -42 -11 -44 -28 -2 -11 -2 -157 0 -323 l3 -303 44 0 45 0 0 295 c0 273 1
296 18 301 109 34 239 145 286 245 25 54 26 63 26 230 0 153 -3 179 -21 218
-21 47 -74 117 -124 163 -34 32 -157 95 -202 104 -28 6 -30 9 -40 74 -29 187
-181 367 -364 431 -78 27 -255 35 -335 15z"/>
<path d="M799 1453 c-18 -26 -95 -125 -171 -219 -76 -94 -138 -174 -138 -177
0 -4 43 -7 95 -7 l95 0 0 -270 0 -270 162 0 161 0 -6 270 -6 270 105 0 105 0
-33 46 c-18 26 -40 51 -49 58 -19 13 -181 209 -227 274 -57 80 -56 80 -93 25z
m160 -223 c44 -55 81 -102 81 -105 0 -3 -27 -5 -60 -5 l-60 0 0 -270 0 -270
-35 0 c-33 0 -35 2 -35 34 0 25 -5 35 -20 39 -18 5 -20 14 -20 100 0 86 2 95
20 100 11 3 20 12 20 20 0 8 -9 17 -20 20 -14 4 -20 14 -20 35 0 21 6 31 20
35 11 3 20 12 20 21 0 9 -8 16 -20 16 -16 0 -20 7 -20 35 0 29 4 35 21 35 11
0 17 5 14 10 -3 6 -26 10 -51 10 -31 0 -44 4 -44 14 0 8 -9 16 -19 18 -16 2
-5 21 62 105 45 56 83 102 83 102 1 1 38 -44 83 -99z"/>
<path d="M1230 1210 l0 -270 -105 0 c-58 0 -105 -3 -105 -6 0 -10 67 -97 98
-126 15 -15 79 -92 142 -172 63 -80 119 -144 125 -142 23 6 345 417 345 441 0
3 -43 5 -95 5 l-95 0 0 270 0 270 -155 0 -155 0 0 -270z m240 -75 l0 -265 60
0 c33 0 60 -3 60 -7 0 -5 -111 -143 -178 -221 l-29 -32 -96 119 c-53 66 -97
122 -97 125 0 3 11 6 24 6 13 0 38 3 55 6 l31 7 0 263 0 264 85 0 85 0 0 -265z"/>
<path d="M2195 931 c-90 -24 -149 -75 -192 -166 -25 -54 -28 -71 -28 -165 0
-113 16 -165 71 -237 76 -100 284 -122 392 -42 44 32 89 110 99 172 l6 37 -45
0 -44 0 -17 -53 c-19 -60 -45 -89 -99 -112 -99 -41 -203 6 -251 115 -28 62
-28 188 0 250 67 152 272 172 338 33 19 -41 22 -42 68 -43 47 0 47 0 41 28
-19 76 -71 138 -143 168 -42 18 -153 27 -196 15z"/>
<path d="M2684 608 l-121 -313 45 -3 c53 -4 52 -5 88 101 l27 77 132 0 131 0
13 -37 c8 -21 22 -62 33 -90 l19 -53 50 0 c27 0 49 3 49 8 0 4 -54 144 -119
312 l-120 305 -53 3 -53 3 -121 -313z m226 72 c22 -62 40 -117 40 -122 0 -4
-43 -8 -95 -8 -52 0 -95 3 -95 6 0 3 21 64 47 136 30 84 49 124 54 115 5 -7
26 -65 49 -127z"/>
<path d="M3210 605 l0 -317 168 4 c188 4 219 13 282 84 48 55 62 98 68 205 8
166 -29 253 -130 306 -51 27 -60 28 -220 31 l-168 4 0 -317z m330 213 c68 -35
95 -95 95 -213 -1 -105 -21 -156 -82 -202 -34 -26 -44 -28 -145 -31 l-108 -4
0 236 0 236 98 0 c82 0 105 -4 142 -22z"/>
<path d="M3820 605 l0 -315 75 0 75 0 0 110 0 110 98 0 c81 0 105 4 148 24
152 71 152 298 -1 367 -34 16 -67 19 -217 19 l-178 0 0 -315z m337 173 c17
-16 23 -32 23 -64 0 -65 -30 -84 -131 -84 l-79 0 0 91 0 92 82 -6 c64 -5 86
-11 105 -29z"/>
<path d="M4495 746 c-54 -20 -105 -77 -105 -116 l0 -30 65 0 c39 0 65 4 65 10
0 22 50 60 77 60 39 0 73 -26 73 -56 0 -31 -19 -39 -134 -58 -103 -17 -135
-36 -155 -92 -18 -50 -8 -104 24 -142 45 -54 167 -65 242 -22 26 15 32 16 37
4 4 -10 24 -14 75 -14 l71 0 -10 26 c-6 14 -10 97 -10 185 0 179 -7 206 -63
236 -44 23 -198 29 -252 9z m175 -286 c0 -54 -34 -90 -85 -90 -52 0 -75 15
-75 49 0 38 15 48 91 65 35 8 65 14 67 15 1 1 2 -17 2 -39z"/>
<path d="M4850 738 c0 -6 36 -107 80 -225 44 -117 80 -219 80 -227 0 -25 -36
-46 -78 -46 l-42 0 0 -55 0 -55 73 0 c83 0 126 20 152 71 15 28 182 469 199
527 7 21 5 22 -63 22 l-70 0 -48 -152 -48 -152 -48 152 -49 152 -69 0 c-46 0
-69 -4 -69 -12z"/>
</g>
</svg>
