<svg width="37" height="37" viewBox="0 0 37 37" fill="none" xmlns="http://www.w3.org/2000/svg">
<path d="M18.5 32.375V20.0417M18.5 32.375L8.54586 25.2649C8.13529 24.9716 7.93 24.825 7.81917 24.6096C7.70834 24.3943 7.70834 24.142 7.70834 23.6374V12.3333M18.5 32.375L28.4541 25.2649C28.8647 24.9716 29.07 24.825 29.1808 24.6096C29.2917 24.3943 29.2917 24.142 29.2917 23.6374V12.3333M18.5 20.0417L7.70834 12.3333M18.5 20.0417L29.2917 12.3333M7.70834 12.3333L17.3375 5.45534C17.8989 5.05438 18.1795 4.8539 18.5 4.8539C18.8205 4.8539 19.1011 5.05438 19.6625 5.45534L29.2917 12.3333" stroke="#2C63EA" stroke-width="2" stroke-linejoin="round"/>
</svg>
