<svg width="99" height="100" viewBox="0 0 99 100" fill="none" xmlns="http://www.w3.org/2000/svg">
<path d="M87.8637 52.6526L33.8098 83.8849C32.4211 84.6873 30.6422 84.2107 29.8364 82.8205L10.4631 49.3913C9.65734 48.0011 10.13 46.2235 11.5186 45.4211L65.5733 14.1891C66.9619 13.3866 68.7404 13.8632 69.5462 15.2535L88.9192 48.6824C89.725 50.0727 89.2524 51.8502 87.8637 52.6526Z" fill="#CFDDFF"/>
<path d="M28.4998 68.46L30.403 71.7436L30.0653 71.9386L28.3364 68.9551L27.5634 69.402L27.3896 69.1014L28.4998 68.46Z" fill="white"/>
<path d="M33.6013 69.4944L33.7756 69.7945L31.475 71.1238L31.3365 70.8845L31.9249 68.7597C32.0832 68.1805 32.0259 67.9189 31.8953 67.6938C31.6754 67.3136 31.2721 67.2337 30.771 67.5232C30.3868 67.7454 30.1594 68.0332 30.0879 68.4063L29.7295 68.338C29.8086 67.8913 30.118 67.4871 30.6194 67.1974C31.285 66.813 31.9026 66.9071 32.2204 67.4557C32.4026 67.7701 32.467 68.1085 32.2768 68.7946L31.7979 70.5365L33.6013 69.4944Z" fill="white"/>
<path d="M36.7279 66.9362L36.0721 67.3157L36.5723 68.1784L36.2351 68.3733L35.7347 67.5104L33.8839 68.5796L33.7428 68.3356L34.22 65.1545L34.5948 64.938L34.1459 68.0276L35.5703 67.2045L35.1299 66.4449L35.4578 66.2554L35.8977 67.0151L36.5541 66.6361L36.7279 66.9362Z" fill="white"/>
<path d="M41.7544 64.0322L41.099 64.4111L41.5993 65.2743L41.2619 65.469L40.7616 64.6058L38.9109 65.6751L38.7695 65.4314L39.2465 62.2505L39.6213 62.034L39.1722 65.1233L40.5966 64.3003L40.1564 63.5409L40.4843 63.3509L40.925 64.1108L41.5806 63.7321L41.7544 64.0322Z" fill="white"/>
<path d="M44.5615 62.2725C44.8853 62.8308 44.7488 63.492 43.9477 63.9548C43.4742 64.2284 42.9293 64.324 42.5266 64.2121L42.5361 63.8501C42.8747 63.9486 43.3415 63.8912 43.7634 63.6478C44.3208 63.3256 44.4585 62.8832 44.2274 62.4843C43.9828 62.0622 43.5678 61.9515 42.734 62.433L42.036 62.8364L41.2505 61.0923L43.0451 60.0556L43.219 60.3562L41.7194 61.2224L42.2136 62.333L42.6352 62.0894C43.6237 61.5183 44.2241 61.691 44.5615 62.2725Z" fill="white"/>
<path d="M47.4674 60.5869C47.2175 60.1553 46.7386 60.0629 46.2325 60.3552C45.7311 60.6449 45.5683 61.1521 45.8051 61.56C46.0142 61.9215 46.5126 62.0904 47.0795 61.7629C47.5532 61.4891 47.7207 61.023 47.4674 60.5869ZM47.7951 60.3851C48.1513 60.9998 47.8971 61.6725 47.2594 62.0408C46.3882 62.5442 45.5643 62.213 44.9631 61.1759C44.3165 60.0598 44.5884 59.1261 45.4785 58.6118C45.7738 58.441 46.0802 58.3331 46.3599 58.3406L46.381 58.6912C46.1477 58.6762 45.8984 58.7637 45.6549 58.9045C44.9474 59.3132 44.7564 60.0311 45.2729 60.9222C45.3163 60.9976 45.3754 61.0883 45.442 61.1814C45.3967 60.7256 45.6638 60.302 46.1186 60.0391C46.7697 59.6628 47.447 59.7848 47.7951 60.3851Z" fill="white"/>
<path d="M52.304 57.8304C52.6221 58.3792 52.4687 59.0314 51.677 59.489C51.2036 59.7626 50.6542 59.8605 50.2515 59.7486L50.2605 59.3872C50.5991 59.4857 51.0706 59.4257 51.4972 59.1792C52.0407 58.8655 52.1944 58.4387 51.9573 58.0306C51.7289 57.6369 51.3033 57.5382 50.6943 57.8901L50.46 58.0255L50.3158 57.7773L50.5643 56.1119L48.8868 57.0812L48.7132 56.7808L50.8211 55.5625L50.9599 55.8019L50.7089 57.5059C51.4338 57.1375 51.9997 57.305 52.304 57.8304Z" fill="white"/>
<path d="M55.244 56.0937C54.9939 55.6624 54.5145 55.57 54.0088 55.8623C53.5072 56.1522 53.3449 56.6589 53.5816 57.0668C53.7907 57.4283 54.2889 57.5975 54.8558 57.27C55.3295 56.9962 55.4968 56.5303 55.244 56.0937ZM55.571 55.8926C55.9272 56.5068 55.6729 57.18 55.036 57.5481C54.1641 58.0517 53.3401 57.7201 52.7395 56.683C52.0926 55.5666 52.3647 54.6332 53.2548 54.1188C53.5501 53.9481 53.8565 53.8402 54.1358 53.8477L54.1578 54.1982C53.924 54.1833 53.6747 54.2708 53.4312 54.4116C52.7238 54.8202 52.5327 55.5377 53.0494 56.429C53.0926 56.5041 53.1514 56.5956 53.2181 56.6882C53.1727 56.2324 53.4402 55.8086 53.8947 55.5464C54.5458 55.1701 55.2231 55.2921 55.571 55.8926Z" fill="white"/>
<path d="M57.2533 51.8457L57.3921 52.0852L57.7835 55.9229L57.4177 56.1342L57.0384 52.371L55.3514 53.3455L55.7076 53.9602L55.3749 54.1523L54.8451 53.2372L57.2533 51.8457Z" fill="white"/>
<path d="M61.9423 49.1367L62.0808 49.376L62.4722 53.2137L62.1067 53.4248L61.7274 49.6615L60.0406 50.6362L60.3966 51.2507L60.0639 51.4428L59.5343 50.528L61.9423 49.1367Z" fill="white"/>
<path d="M64.7298 49.4487C65.2406 49.1533 65.4119 48.7478 65.2054 48.3911C64.9908 48.0204 64.5369 47.9822 64.045 48.2662C63.5486 48.5531 63.3648 48.96 63.5772 49.3255C63.7864 49.687 64.2192 49.7439 64.7298 49.4487ZM66.1936 49.8363C65.9596 49.4329 65.4659 49.3804 64.8845 49.7159C64.3039 50.0517 64.1087 50.5025 64.3426 50.9059C64.5789 51.3138 65.0679 51.3694 65.6487 51.0339C66.2299 50.6981 66.4298 50.2443 66.1936 49.8363ZM66.5426 49.6412C66.8795 50.2227 66.5972 50.8682 65.8147 51.3203C65.0278 51.7748 64.3402 51.6897 64.0031 51.1084C63.7746 50.7142 63.8392 50.3077 64.1682 49.9359C63.7592 49.9968 63.4328 49.8537 63.2341 49.5112C62.9244 48.9766 63.1855 48.3809 63.879 47.9803C64.5725 47.5792 65.2294 47.6444 65.5394 48.1793C65.738 48.5218 65.6942 48.8786 65.4333 49.2048C65.9242 49.1031 66.3168 49.2517 66.5426 49.6412Z" fill="white"/>
<path d="M68.4484 46.6612C68.2388 46.3002 67.7411 46.1305 67.1742 46.4584C66.7008 46.732 66.5333 47.1981 66.7863 47.6345C67.0362 48.0661 67.5149 48.1587 68.0215 47.8659C68.5224 47.5767 68.6849 47.0693 68.4484 46.6612ZM69.2903 47.0452C69.9372 48.1616 69.6649 49.0953 68.7755 49.6093C68.4797 49.7801 68.1735 49.8883 67.894 49.8805L67.872 49.5305C68.106 49.5451 68.3556 49.4574 68.5991 49.3166C69.3065 48.9079 69.4975 48.19 68.9809 47.2991C68.9375 47.2238 68.8783 47.1326 68.8119 47.0398C68.8571 47.4958 68.5896 47.9196 68.1351 48.1822C67.4842 48.5583 66.8065 48.4363 66.4586 47.8358C66.1029 47.2216 66.3569 46.5487 66.9938 46.1806C67.8655 45.6767 68.6894 46.0084 69.2903 47.0452Z" fill="white"/>
<path d="M71.6807 43.5098L73.5837 46.7937L73.2466 46.9886L71.5171 44.0052L70.7444 44.4518L70.5703 44.1515L71.6807 43.5098Z" fill="white"/>
<path d="M76.7826 44.5447L76.9566 44.845L74.6563 46.1741L74.5175 45.9346L75.1062 43.81C75.2643 43.2306 75.207 42.9694 75.0765 42.7441C74.8562 42.364 74.453 42.2845 73.9518 42.574C73.568 42.7957 73.3402 43.0835 73.2689 43.4569L72.91 43.3885C72.9894 42.9421 73.2993 42.5374 73.8007 42.2477C74.4655 41.8636 75.0834 41.9575 75.4015 42.5063C75.5834 42.8209 75.6481 43.159 75.4579 43.8452L74.9786 45.5869L76.7826 44.5447Z" fill="white"/>
<path d="M79.352 42.2021C79.67 42.7505 79.517 43.4029 78.7246 43.8607C78.2513 44.134 77.7021 44.2323 77.2995 44.1203L77.3085 43.7584C77.6473 43.8571 78.1186 43.7974 78.545 43.5511C79.0887 43.2367 79.2419 42.8104 79.0051 42.4025C78.7769 42.0081 78.3506 41.9102 77.742 42.2616L77.508 42.3972L77.3638 42.1485L77.6118 40.4836L75.9348 41.4529L75.7607 41.1525L77.8694 39.9339L78.0081 40.1734L77.7569 41.8776C78.4818 41.5088 79.0477 41.6767 79.352 42.2021Z" fill="white"/>
<path d="M56.1186 60.1275L56.945 61.5535L83.2158 46.3744L82.3896 44.9486L56.1186 60.1275Z" fill="white"/>
<path d="M70.5656 55.5805L71.3923 57.0063L84.8662 49.2216L84.0402 47.7951L70.5656 55.5805Z" fill="white"/>
<path d="M23.5354 64.5028L23.2296 63.9735L28.9051 60.6947C29.559 60.3163 29.7832 59.4749 29.4034 58.8185C29.0231 58.1631 28.1693 57.9346 27.5264 58.3162L21.8504 61.5956L21.5445 61.0664L27.2198 57.7873C28.166 57.2409 29.3826 57.5664 29.9317 58.5132C30.4804 59.461 30.1574 60.6768 29.2117 61.2236L23.5354 64.5028Z" fill="#CFDDFF"/>
<path d="M29.8204 58.9308L29.5145 58.4016L33.4103 56.1509L33.7161 56.6801L29.8204 58.9308Z" fill="#CFDDFF"/>
<path d="M47.2126 37.0622L18.8625 53.4408L17.451 51.0047L45.801 34.6263L47.2126 37.0622Z" fill="white"/>
<path d="M67.5381 27.5061L63.6979 29.7248C63.1826 30.0226 62.5224 29.8456 62.2237 29.3299L59.9958 25.4854C59.6968 24.9695 59.8723 24.3098 60.3874 24.0123L64.2278 21.7938C64.7432 21.4961 65.4031 21.6729 65.7021 22.1888L67.93 26.0333C68.2287 26.549 68.0532 27.2086 67.5381 27.5061Z" fill="white"/>
<path d="M36.9676 67.043L25.2716 79.7384C24.9214 80.1186 24.3289 80.1424 23.9479 79.7914L23.6766 79.5415C23.2956 79.1905 23.2708 78.5979 23.621 78.2178L35.317 65.5223C35.6672 65.1422 36.2598 65.1184 36.6408 65.4694L36.9121 65.7193C37.2931 66.0703 37.3178 66.6628 36.9676 67.043Z" fill="#CFDDFF"/>
</svg>
