<svg width="126" height="99" viewBox="0 0 126 99" fill="none" xmlns="http://www.w3.org/2000/svg">
<path d="M101.445 98.1014L5.88695 68.2883C3.43194 67.5226 2.06128 64.9069 2.82532 62.4462L21.2 3.28073C21.964 0.820084 24.5737 -0.553711 27.0287 0.212082L122.587 30.0263C125.042 30.7921 126.413 33.4072 125.649 35.8678L107.274 95.0328C106.51 97.4934 103.9 98.8672 101.445 98.1014Z" fill="#DADBD8"/>
<path d="M18.3085 45.268L16.504 51.0798L15.9072 50.8935L17.5472 45.6132L16.1804 45.1872L16.346 44.6556L18.3085 45.268Z" fill="white"/>
<path d="M22.631 52.4081L22.4664 52.9397L18.3994 51.6709L18.531 51.2476L21.6761 49.633C22.5312 49.1904 22.7774 48.8386 22.9008 48.44C23.1103 47.7677 22.7665 47.2053 21.8806 46.9288C21.2011 46.7172 20.6147 46.7617 20.097 47.0827L19.7882 46.5858C20.4008 46.1938 21.2137 46.1196 22.1 46.3961C23.2765 46.7633 23.8365 47.594 23.5349 48.5648C23.3621 49.1212 23.033 49.5648 22.0172 50.086L19.4426 51.4136L22.631 52.4081Z" fill="white"/>
<path d="M29.0448 53.3159L27.8847 52.9547L27.4108 54.4819L26.8147 54.2961L27.2885 52.7684L24.0168 51.7475L24.1512 51.316L28.4212 48.4227L29.0837 48.6294L24.9526 51.4567L27.4706 52.2423L27.888 50.8976L28.4678 51.0785L28.0498 52.4226L29.2099 52.7849L29.0448 53.3159Z" fill="white"/>
<path d="M37.9304 56.0886L36.7715 55.7274L36.297 57.2551L35.7008 57.0688L36.1753 55.541L32.9036 54.5202L33.0374 54.0886L37.3068 51.1953L37.9693 51.402L33.8382 54.2288L36.3563 55.0144L36.7737 53.6703L37.3539 53.8506L36.9366 55.1958L38.0955 55.5575L37.9304 56.0886Z" fill="white"/>
<path d="M43.0555 57.4868C42.7489 58.4753 41.8208 59.0327 40.4047 58.5907C39.5677 58.3296 38.8629 57.7908 38.5574 57.1944L38.9945 56.8123C39.2463 57.3186 39.8211 57.8068 40.5665 58.0399C41.5521 58.3472 42.2234 58.0289 42.4428 57.323C42.6748 56.5759 42.3545 55.9663 40.8807 55.5061L39.6467 55.1213L40.85 52.3L44.0225 53.2901L43.8568 53.8217L41.206 52.9944L40.4332 54.7838L41.1786 55.0163C42.926 55.5616 43.3747 56.4572 43.0555 57.4868Z" fill="white"/>
<path d="M48.2002 59.0828C48.4377 58.3192 48.0263 57.654 47.1317 57.3748C46.2454 57.0982 45.4704 57.4572 45.2466 58.1796C45.0475 58.8189 45.3898 59.5902 46.3918 59.903C47.2294 60.1642 47.961 59.8552 48.2002 59.0828ZM48.7942 59.2499C48.4563 60.3379 47.3868 60.7689 46.2597 60.417C44.7195 59.9366 44.2149 58.6051 44.7848 56.7695C45.3985 54.7943 46.795 54.1005 48.3686 54.5914C48.8907 54.7541 49.3509 54.9982 49.646 55.3363L49.2555 55.742C49.0196 55.4507 48.6456 55.2517 48.215 55.1175C46.9645 54.7272 45.9103 55.2819 45.4205 56.8591C45.3788 56.9921 45.336 57.1604 45.2987 57.3401C45.7869 56.7915 46.5767 56.6464 47.3808 56.897C48.532 57.256 49.1238 58.1873 48.7942 59.2499Z" fill="white"/>
<path d="M56.7057 61.7915C56.404 62.7629 55.4683 63.2907 54.0686 62.8542C53.2316 62.593 52.5191 62.0515 52.2136 61.4551L52.6497 61.073C52.9014 61.5793 53.4845 62.0702 54.2386 62.3055C55.199 62.6057 55.8693 62.3231 56.093 61.6002C56.3092 60.9031 55.9631 60.294 54.8864 59.9581L54.4723 59.8289L54.6083 59.3891L56.8423 57.873L53.8766 56.9477L54.0423 56.4167L57.7692 57.5788L57.6376 58.0027L55.3553 59.5579C56.5773 60.0126 56.9948 60.8619 56.7057 61.7915Z" fill="white"/>
<path d="M61.9477 63.3719C62.1847 62.6083 61.7728 61.9426 60.8787 61.6639C59.9918 61.3874 59.2179 61.7463 58.9941 62.4687C58.795 63.108 59.1368 63.8793 60.1388 64.1921C60.9764 64.4533 61.7075 64.1443 61.9477 63.3719ZM62.5401 63.5391C62.2028 64.6265 61.1327 65.058 60.0066 64.7067C58.4654 64.2257 57.9614 62.8937 58.5318 61.0586C59.1455 59.0828 60.542 58.3896 62.1156 58.8805C62.6377 59.0432 63.0979 59.2873 63.3924 59.6249L63.003 60.0317C62.7666 59.7398 62.3925 59.5408 61.962 59.4066C60.7115 59.0163 59.6578 59.5704 59.168 61.1482C59.1263 61.2807 59.0824 61.4495 59.0457 61.6287C59.5338 61.0801 60.3242 60.9349 61.1272 61.1862C62.2785 61.5451 62.8703 62.4764 62.5401 63.5391Z" fill="white"/>
<path d="M69.1402 61.1263L69.0086 61.5501L64.9081 66.1812L64.2615 65.9794L68.2873 61.4435L65.3052 60.5128L64.9674 61.6007L64.3794 61.4171L64.8829 59.7981L69.1402 61.1263Z" fill="white"/>
<path d="M77.4293 63.7128L77.2976 64.1361L73.1971 68.7671L72.551 68.5653L76.5769 64.0294L73.5948 63.0993L73.2569 64.1866L72.669 64.003L73.1725 62.3846L77.4293 63.7128Z" fill="white"/>
<path d="M80.0899 67.3389C80.9932 67.6204 81.6575 67.3818 81.8538 66.7507C82.0578 66.0948 81.6097 65.5181 80.7404 65.2466C79.8628 64.9728 79.1832 65.1982 78.983 65.8458C78.784 66.4851 79.1871 67.0574 80.0899 67.3389ZM81.2231 69.4862C81.4446 68.7721 80.9702 68.1327 79.9429 67.8117C78.9161 67.4917 78.1724 67.7512 77.9508 68.4653C77.7265 69.1871 78.1921 69.8243 79.2189 70.1448C80.2462 70.4653 80.9987 70.208 81.2231 69.4862ZM81.8324 69.6857C81.5127 70.7149 80.4448 71.0832 79.0615 70.6516C77.6705 70.2174 77.0239 69.3141 77.3431 68.285C77.5597 67.5874 78.1093 67.2218 78.9052 67.2059C78.389 66.7897 78.2031 66.2493 78.3912 65.6429C78.6852 64.6968 79.6714 64.3576 80.8973 64.7403C82.1237 65.1223 82.7604 65.9678 82.4665 66.9145C82.2783 67.5209 81.8099 67.8568 81.1419 67.9035C81.7951 68.3719 82.0463 68.9964 81.8324 69.6857Z" fill="white"/>
<path d="M87.4171 68.6958C87.6151 68.0565 87.2745 67.2852 86.2719 66.9729C85.4349 66.7118 84.7032 67.0208 84.4636 67.7931C84.2261 68.5567 84.6369 69.2219 85.5325 69.5012C86.4178 69.7777 87.1928 69.4182 87.4171 68.6958ZM87.8789 70.1059C87.2652 72.0817 85.8682 72.7749 84.2957 72.2845C83.773 72.1213 83.3128 71.8777 83.0183 71.5396L83.4072 71.1334C83.6441 71.4253 84.0187 71.6243 84.4493 71.7584C85.6998 72.1487 86.754 71.5941 87.2432 70.0168C87.2849 69.8838 87.3283 69.715 87.3656 69.5358C86.8769 70.0845 86.0865 70.2296 85.283 69.9789C84.1323 69.6199 83.5399 68.6881 83.8701 67.6255C84.208 66.5386 85.2775 66.1071 86.4035 66.4584C87.9447 66.9388 88.4488 68.2709 87.8789 70.1059Z" fill="white"/>
<path d="M94.6454 69.0839L92.8403 74.8958L92.2441 74.7099L93.8836 69.4291L92.5173 69.0031L92.6824 68.4715L94.6454 69.0839Z" fill="white"/>
<path d="M98.9679 76.2245L98.8028 76.7561L94.7363 75.4873L94.868 75.0634L98.013 73.4494C98.8681 73.0063 99.1138 72.655 99.2377 72.2565C99.4467 71.5836 99.1023 71.0217 98.2165 70.7452C97.538 70.5336 96.9511 70.5776 96.4333 70.8992L96.124 70.4016C96.7366 70.0102 97.5506 69.936 98.437 70.2125C99.6124 70.5792 100.173 71.4099 99.8712 72.3813C99.6979 72.9376 99.3694 73.3812 98.3536 73.9024L95.779 75.2295L98.9679 76.2245Z" fill="white"/>
<path d="M104.522 76.7098C104.221 77.6806 103.285 78.2089 101.884 77.7719C101.048 77.5108 100.335 76.9698 100.03 76.3734L100.466 75.9907C100.718 76.4976 101.301 76.9885 102.054 77.2238C103.016 77.5234 103.685 77.2408 103.909 76.5185C104.126 75.8209 103.778 75.2117 102.703 74.8758L102.288 74.7472L102.425 74.3069L104.658 72.7907L101.693 71.866L101.858 71.3344L105.586 72.4971L105.454 72.921L103.172 74.4762C104.394 74.9303 104.811 75.7802 104.522 76.7098Z" fill="white"/>
<path d="M58.141 68.7859L57.3572 71.3097L103.799 85.7993L104.583 83.276L58.141 68.7859Z" fill="white"/>
<path d="M79.1992 80.8828L78.416 83.4067L102.235 90.8386L103.02 88.3148L79.1992 80.8828Z" fill="white"/>
<path d="M17.5818 35.1143L17.8736 34.1786L27.9064 37.3094C29.0631 37.6695 30.2989 37.0197 30.6603 35.8586C31.0201 34.6981 30.3619 33.443 29.2134 33.0994L19.1795 29.9687L19.4713 29.033L29.5041 32.1632C31.1764 32.6855 32.1143 34.4738 31.5944 36.15C31.0728 37.8267 29.288 38.7667 27.6157 38.2456L17.5818 35.1143Z" fill="#DADBD8"/>
<path d="M30.981 36.4724L31.2728 35.5367L38.1595 37.6857L37.8677 38.6213L30.981 36.4724Z" fill="#DADBD8"/>
<path d="M75.6659 33.2239L25.55 17.5854L26.8894 13.2743L77.0048 28.9128L75.6659 33.2239Z" fill="white"/>
<path d="M109.017 46.8114L102.229 44.6933C101.318 44.409 100.809 43.4382 101.093 42.5256L103.206 35.7215C103.49 34.8083 104.458 34.2987 105.369 34.5829L112.158 36.7016C113.069 36.9859 113.577 37.9562 113.293 38.8693L111.18 45.6734C110.897 46.586 109.928 47.0956 109.017 46.8114Z" fill="white"/>
<path d="M29.1792 53.7146H1.50065C0.671896 53.7146 0 53.0417 0 52.2111V51.6195C0 50.7889 0.671896 50.116 1.50065 50.116H29.1792C30.008 50.116 30.6799 50.7889 30.6799 51.6195V52.2111C30.6799 53.0417 30.008 53.7146 29.1792 53.7146Z" fill="#DADBD8"/>
</svg>
