<svg width="37" height="37" viewBox="0 0 37 37" fill="none" xmlns="http://www.w3.org/2000/svg">
<path d="M28.9939 9.5761L19.2878 5.41636C18.7847 5.20075 18.2153 5.20075 17.7122 5.41636L8.00612 9.5761C7.18688 9.9272 6.69885 10.778 6.8094 11.6625L7.96405 20.8997C8.1842 22.6609 9.06518 24.2727 10.4287 25.409L17.2196 31.0681C17.9613 31.6862 19.0387 31.6862 19.7804 31.0681L26.5713 25.409C27.9348 24.2727 28.8158 22.6609 29.036 20.8997L30.1906 11.6625C30.3012 10.778 29.8131 9.9272 28.9939 9.5761Z" stroke="#2C63EA" stroke-width="2" stroke-linecap="round"/>
<path d="M13.875 18.5L18.0687 22.6937C18.2918 22.9168 18.6633 22.8801 18.8383 22.6175L24.6667 13.875" stroke="#2C63EA" stroke-width="2" stroke-linecap="round"/>
</svg>
