<svg width="37" height="37" viewBox="0 0 37 37" fill="none" xmlns="http://www.w3.org/2000/svg">
<path d="M5.625 12.3333C5.625 10.8515 5.62712 9.8408 5.72897 9.08329C5.82695 8.35454 6.00042 8.01159 6.23519 7.77682C6.46997 7.54205 6.81291 7.36857 7.54166 7.27059C8.29917 7.16875 9.3099 7.16663 10.7917 7.16663H26.2083C27.6901 7.16663 28.7008 7.16875 29.4583 7.27059C30.1871 7.36857 30.53 7.54205 30.7648 7.77682C30.9996 8.0116 31.1731 8.35454 31.271 9.08329C31.3729 9.8408 31.375 10.8515 31.375 12.3333V25.2083H5.625V12.3333Z" stroke="#1D2646" stroke-width="2"/>
<path d="M5.65278 25.2084C4.53287 25.2084 3.625 26.1162 3.625 27.2362C3.625 28.9237 4.99302 30.2917 6.68056 30.2917H30.3194C32.007 30.2917 33.375 28.9237 33.375 27.2362C33.375 26.1162 32.4671 25.2084 31.3472 25.2084H5.65278Z" stroke="#1D2646" stroke-width="2"/>
</svg>
