<svg width="50" height="50" viewBox="0 0 50 50" fill="none" xmlns="http://www.w3.org/2000/svg">
<path d="M42.9081 16.4281C47.4687 26.4857 43.0132 38.3413 32.9573 42.91C22.9007 47.4783 11.0513 43.0282 6.49076 32.9706C1.92987 22.9137 6.38543 11.0574 16.4415 6.48932C26.498 1.92105 38.3478 6.37109 42.9081 16.4281Z" fill="#ECF1FF"/>
<path d="M38.3257 18.0716C41.8187 25.8431 38.5064 34.9592 30.9278 38.4334C23.3497 41.9075 14.3739 38.4234 10.8816 30.6523C7.38907 22.8806 10.7009 13.7647 18.2796 10.2905C25.8578 6.81697 34.8329 10.3007 38.3257 18.0716Z" fill="#E1E8FF"/>
<path d="M38.3772 17.7574C38.2934 17.7991 37.9586 17.2262 37.2532 16.283C36.5458 15.3475 35.4316 14.0352 33.7154 12.8268C32.8593 12.2257 31.8587 11.6529 30.719 11.1818C29.576 10.7212 28.3006 10.3489 26.9219 10.1702C26.2335 10.0776 25.521 10.0234 24.7928 10.0329C24.0649 10.0387 23.3208 10.0849 22.5726 10.2052C21.8255 10.3228 21.0692 10.4837 20.3232 10.7198C19.5769 10.9548 18.837 11.2448 18.112 11.5915C17.3922 11.948 16.7076 12.3508 16.0643 12.7913C15.4194 13.2324 14.8295 13.7271 14.2793 14.2404C13.7265 14.7533 13.2353 15.3084 12.7872 15.8746C12.3348 16.439 11.9443 17.0313 11.5982 17.6265C10.9013 18.8158 10.4215 20.0421 10.0948 21.2179C9.77785 22.3979 9.6272 23.5309 9.58686 24.5686C9.51002 26.6489 9.88279 28.3215 10.2013 29.4461C10.5287 30.5742 10.7836 31.1853 10.6986 31.2249C10.6371 31.2567 10.2404 30.7122 9.76759 29.5967C9.30458 28.4855 8.78341 26.7696 8.75398 24.5719C8.74129 23.477 8.85104 22.269 9.14705 21.0023C9.45232 19.74 9.92931 18.4154 10.6506 17.1241C11.0086 16.4778 11.4169 15.8357 11.8935 15.2208C12.3665 14.6039 12.8892 13.9998 13.4791 13.4406C14.0669 12.8801 14.7004 12.3426 15.3934 11.8634C16.0854 11.3833 16.8238 10.9474 17.6002 10.5635C18.3813 10.1896 19.1805 9.87736 19.9871 9.62819C20.794 9.37774 21.6115 9.20975 22.4189 9.0906C23.2267 8.96891 24.0301 8.92854 24.8129 8.93462C25.5968 8.93564 26.3616 9.00779 27.0969 9.12112C28.5722 9.34413 29.9255 9.77677 31.1246 10.3081C32.3196 10.8484 33.3559 11.4994 34.2267 12.1764C35.9714 13.5392 37.0299 14.9945 37.6394 16.0342C38.2453 17.0851 38.4399 17.7276 38.3772 17.7574Z" fill="#ECF1FF"/>
<path d="M29.7449 26.9719C29.3879 26.2187 28.5644 26.1065 27.476 26.2222L28.8812 29.1913C29.8569 28.4443 30.0707 27.6608 29.7449 26.9719ZM23.5495 23.5433L22.1028 20.4886C21.0723 21.2877 20.9116 22.1261 21.2473 22.8366C21.604 23.5886 22.4501 23.6921 23.5495 23.5433ZM30.2252 32.0316L31.3659 34.4412L29.1907 35.4615L28.0808 33.1169C25.8669 33.9983 23.4854 34.3019 21.8512 33.9379L21.8041 30.7522C23.269 31.0375 25.1092 30.8833 26.7473 30.2985L25.0459 26.7058C22.3573 27.2585 19.2837 27.7286 17.827 24.6517C16.7483 22.3714 17.4958 19.6276 20.7485 17.6274L19.6183 15.2393L21.7931 14.2179L22.9033 16.5636C24.5956 15.9269 26.3863 15.6113 27.939 15.8029L28.1052 18.9598C26.7002 18.8572 25.3962 19.0219 24.247 19.4028L25.9786 23.0606C28.6572 22.4858 31.6882 22.0369 33.1238 25.0698C34.1826 27.3078 33.4463 30.0197 30.2252 32.0316Z" fill="#ECF1FF"/>
</svg>
