<svg width="22" height="22" viewBox="0 0 22 22" fill="none" xmlns="http://www.w3.org/2000/svg">
<path d="M21.2404 6.42353C21.1916 5.31661 21.0126 4.55562 20.7561 3.89621C20.4915 3.19626 20.0845 2.5696 19.5512 2.04865C19.0301 1.5196 18.3992 1.1085 17.7072 0.848109C17.0439 0.591689 16.2867 0.412688 15.1796 0.363884C14.0642 0.310947 13.7101 0.298706 10.8812 0.298706C8.05223 0.298706 7.69814 0.310947 6.58688 0.359751C5.47976 0.408555 4.71862 0.587715 4.05924 0.843975C3.359 1.1085 2.73222 1.51547 2.21117 2.04865C1.68202 2.5696 1.271 3.2004 1.0104 3.89224C0.753931 4.55562 0.574895 5.31248 0.526082 6.41939C0.473135 7.53457 0.460892 7.8886 0.460892 10.717C0.460892 13.5454 0.473135 13.8994 0.521948 15.0105C0.570761 16.1174 0.749955 16.8784 1.00642 17.5378C1.271 18.2377 1.68202 18.8644 2.21117 19.3854C2.73222 19.9144 3.36314 20.3255 4.05511 20.5859C4.71862 20.8423 5.47562 21.0213 6.58291 21.0701C7.694 21.1191 8.04826 21.1312 10.8772 21.1312C13.7061 21.1312 14.0602 21.1191 15.1715 21.0701C16.2786 21.0213 17.0398 20.8423 17.6991 20.5859C19.0995 20.0446 20.2066 18.9377 20.748 17.5378C21.0043 16.8744 21.1835 16.1174 21.2323 15.0105C21.2811 13.8994 21.2934 13.5454 21.2934 10.717C21.2934 7.8886 21.2892 7.53457 21.2404 6.42353ZM19.364 14.9291C19.3192 15.9465 19.1483 16.4959 19.0058 16.8622C18.6557 17.7697 17.9353 18.49 17.0275 18.8401C16.6612 18.9825 16.1077 19.1534 15.0941 19.1981C13.9951 19.2471 13.6654 19.2591 10.8853 19.2591C8.10518 19.2591 7.77144 19.2471 6.6764 19.1981C5.65879 19.1534 5.10928 18.9825 4.74295 18.8401C4.29122 18.6732 3.88005 18.4086 3.54631 18.0627C3.20032 17.7249 2.93574 17.3179 2.76879 16.8663C2.62633 16.5 2.4554 15.9465 2.41072 14.9332C2.36175 13.8344 2.34966 13.5047 2.34966 10.7251C2.34966 7.94551 2.36175 7.61183 2.41072 6.51716C2.4554 5.49975 2.62633 4.95035 2.76879 4.58408C2.93574 4.13228 3.20032 3.72134 3.55044 3.38751C3.88816 3.04159 4.2952 2.77706 4.74708 2.6103C5.11342 2.46786 5.66706 2.29697 6.68053 2.25214C7.77955 2.20333 8.10931 2.19109 10.8893 2.19109C13.6736 2.19109 14.0032 2.20333 15.0982 2.25214C16.1158 2.29697 16.6653 2.46786 17.0317 2.6103C17.4834 2.77706 17.8946 3.04159 18.2283 3.38751C18.5743 3.72532 18.8389 4.13228 19.0058 4.58408C19.1483 4.95035 19.3192 5.50372 19.364 6.51716C19.4129 7.61597 19.4251 7.94551 19.4251 10.7251C19.4251 13.5047 19.4129 13.8303 19.364 14.9291Z" fill="white"/>
<path d="M10.8774 5.42126C7.95504 5.42126 5.58394 7.7922 5.58394 10.7148C5.58394 13.6373 7.95504 16.0083 10.8774 16.0083C13.8 16.0083 16.1709 13.6373 16.1709 10.7148C16.1709 7.7922 13.8 5.42126 10.8774 5.42126ZM10.8774 14.1485C8.98153 14.1485 7.44368 12.6108 7.44368 10.7148C7.44368 8.8187 8.98153 7.281 10.8774 7.281C12.7735 7.281 14.3112 8.8187 14.3112 10.7148C14.3112 12.6108 12.7735 14.1485 10.8774 14.1485Z" fill="white"/>
<path d="M17.537 5.0803C17.537 5.83468 17.0019 6.44636 16.3417 6.44636C15.6816 6.44636 15.1464 5.83468 15.1464 5.0803C15.1464 4.32574 15.6816 3.71423 16.3417 3.71423C17.0019 3.71423 17.537 4.32574 17.537 5.0803Z" fill="white"/>
</svg>
