<svg width="40" height="40" viewBox="0 0 40 40" fill="none" xmlns="http://www.w3.org/2000/svg">
<path d="M5 12C5 11.0572 5 10.5858 5.29289 10.2929C5.58579 10 6.05719 10 7 10H27.263C27.7869 10 28.0489 10 28.27 10.1183C28.4911 10.2367 28.6364 10.4546 28.9271 10.8906L34.2604 18.8906C34.6189 19.4283 34.7981 19.6972 34.7981 20C34.7981 20.3028 34.6189 20.5717 34.2604 21.1094L28.9271 29.1094C28.6364 29.5454 28.4911 29.7633 28.27 29.8817C28.0489 30 27.7869 30 27.263 30H7C6.05719 30 5.58579 30 5.29289 29.7071C5 29.4142 5 28.9428 5 28V12Z" fill="#DC0D11" fill-opacity="0.25" stroke="#DC0D11" stroke-width="2"/>
<ellipse cx="25" cy="20" rx="1.66667" ry="1.66667" fill="#DC0D11" stroke="#DC0D11" stroke-width="2"/>
</svg>
