<svg width="40" height="40" viewBox="0 0 40 40" fill="none" xmlns="http://www.w3.org/2000/svg">
<path d="M20 6.66663L8.33333 11.6666L20 16.6666L31.6667 11.6666L20 6.66663Z" fill="#DC0D11" fill-opacity="0.25" stroke="#DC0D11" stroke-width="2" stroke-linejoin="round"/>
<path fill-rule="evenodd" clip-rule="evenodd" d="M18.056 15.8331L20 16.6663L21.9439 15.8331L31.6667 20L20 25L8.33333 20L18.056 15.8331Z" fill="#DC0D11" fill-opacity="0.25"/>
<path d="M18.056 15.8331L18.4499 14.914C18.1984 14.8062 17.9136 14.8062 17.6621 14.914L18.056 15.8331ZM20 16.6663L19.606 17.5854C19.8576 17.6932 20.1423 17.6932 20.3939 17.5854L20 16.6663ZM21.9439 15.8331L22.3379 14.914C22.0863 14.8062 21.8016 14.8062 21.55 14.914L21.9439 15.8331ZM31.6667 20L32.0606 20.9192C32.4283 20.7616 32.6667 20.4 32.6667 20C32.6667 19.6 32.4283 19.2384 32.0606 19.0809L31.6667 20ZM20 25L19.6061 25.9192C19.8576 26.027 20.1424 26.027 20.3939 25.9192L20 25ZM8.33333 20L7.93941 19.0809C7.57173 19.2384 7.33333 19.6 7.33333 20C7.33333 20.4 7.57173 20.7616 7.93941 20.9192L8.33333 20ZM17.6621 16.7523L19.606 17.5854L20.3939 15.7471L18.4499 14.914L17.6621 16.7523ZM20.3939 17.5854L22.3379 16.7523L21.55 14.914L19.606 15.7471L20.3939 17.5854ZM32.0606 19.0809L22.3379 14.914L21.55 16.7523L31.2727 20.9192L32.0606 19.0809ZM20.3939 25.9192L32.0606 20.9192L31.2727 19.0809L19.6061 24.0809L20.3939 25.9192ZM7.93941 20.9192L19.6061 25.9192L20.3939 24.0809L8.72725 19.0809L7.93941 20.9192ZM17.6621 14.914L7.93941 19.0809L8.72725 20.9192L18.4499 16.7523L17.6621 14.914Z" fill="#DC0D11"/>
<path fill-rule="evenodd" clip-rule="evenodd" d="M18.0555 24.1666L20 25L21.9444 24.1666L31.6667 28.3333L20 33.3333L8.33333 28.3333L18.0555 24.1666Z" fill="#DC0D11" fill-opacity="0.25"/>
<path d="M18.0555 24.1666L18.4495 23.2475C18.1979 23.1397 17.9132 23.1397 17.6616 23.2475L18.0555 24.1666ZM20 25L19.6061 25.9191C19.8576 26.0269 20.1424 26.0269 20.3939 25.9191L20 25ZM21.9444 24.1666L22.3384 23.2475C22.0868 23.1397 21.8021 23.1397 21.5505 23.2475L21.9444 24.1666ZM31.6667 28.3333L32.0606 29.2524C32.4283 29.0949 32.6667 28.7333 32.6667 28.3333C32.6667 27.9333 32.4283 27.5717 32.0606 27.4141L31.6667 28.3333ZM20 33.3333L19.6061 34.2524C19.8576 34.3602 20.1424 34.3602 20.3939 34.2524L20 33.3333ZM8.33333 28.3333L7.93941 27.4141C7.57173 27.5717 7.33333 27.9333 7.33333 28.3333C7.33333 28.7333 7.57173 29.0949 7.93941 29.2524L8.33333 28.3333ZM17.6616 25.0858L19.6061 25.9191L20.3939 24.0808L18.4495 23.2475L17.6616 25.0858ZM20.3939 25.9191L22.3384 25.0858L21.5505 23.2475L19.6061 24.0808L20.3939 25.9191ZM32.0606 27.4141L22.3384 23.2475L21.5505 25.0858L31.2727 29.2524L32.0606 27.4141ZM20.3939 34.2524L32.0606 29.2524L31.2727 27.4141L19.6061 32.4141L20.3939 34.2524ZM7.93941 29.2524L19.6061 34.2524L20.3939 32.4141L8.72725 27.4141L7.93941 29.2524ZM17.6616 23.2475L7.93941 27.4141L8.72725 29.2524L18.4495 25.0858L17.6616 23.2475Z" fill="#DC0D11"/>
</svg>
