<svg width="21" height="22" viewBox="0 0 21 22" fill="none" xmlns="http://www.w3.org/2000/svg">
<path d="M19.1718 0.298218H1.68811C0.763671 0.298218 0.0137024 1.04819 0.0137024 1.97263V19.4563C0.0137024 20.3807 0.763671 21.1307 1.68811 21.1307H19.1718C20.0962 21.1307 20.8462 20.3807 20.8462 19.4563V1.97263C20.8462 1.04819 20.0962 0.298218 19.1718 0.298218ZM19.1718 19.4641C7.51079 19.4615 1.6803 19.4589 1.6803 19.4563C1.6829 7.7953 1.68551 1.96482 1.68811 1.96482C13.3491 1.96742 19.1796 1.97002 19.1796 1.97263C19.177 13.6336 19.1744 19.4641 19.1718 19.4641ZM3.10212 8.10779H6.19313V18.0501H3.10212V8.10779ZM4.64893 6.74847C5.63586 6.74847 6.44052 5.94642 6.44052 4.95688C6.44052 4.7216 6.39418 4.48863 6.30414 4.27127C6.21411 4.0539 6.08214 3.8564 5.91577 3.69003C5.74941 3.52367 5.5519 3.3917 5.33454 3.30166C5.11717 3.21163 4.8842 3.16529 4.64893 3.16529C4.41365 3.16529 4.18068 3.21163 3.96331 3.30166C3.74595 3.3917 3.54844 3.52367 3.38208 3.69003C3.21571 3.8564 3.08375 4.0539 2.99371 4.27127C2.90367 4.48863 2.85733 4.7216 2.85733 4.95688C2.85473 5.94642 3.65678 6.74847 4.64893 6.74847ZM11.219 13.131C11.219 11.8342 11.4664 10.579 13.0731 10.579C14.6563 10.579 14.6798 12.0607 14.6798 13.2143V18.0501H17.7682V12.5972C17.7682 9.92021 17.1901 7.8604 14.0626 7.8604C12.5601 7.8604 11.5523 8.68589 11.1382 9.46711H11.0966V8.10779H8.13055V18.0501H11.219V13.131Z" fill="white"/>
</svg>
