<svg width="40" height="40" viewBox="0 0 40 40" fill="none" xmlns="http://www.w3.org/2000/svg">
<path d="M6.66666 19C6.66666 17.1144 6.66666 16.1716 7.25244 15.5858C7.83823 15 8.78104 15 10.6667 15H29.3333C31.2189 15 32.1617 15 32.7475 15.5858C33.3333 16.1716 33.3333 17.1144 33.3333 19V29C33.3333 31.8284 33.3333 33.2426 32.4546 34.1213C31.576 35 30.1617 35 27.3333 35H12.6667C9.83823 35 8.42402 35 7.54534 34.1213C6.66666 33.2426 6.66666 31.8284 6.66666 29V19Z" fill="#DC0D11" fill-opacity="0.25" stroke="#DC0D11" stroke-width="2"/>
<path d="M26.6666 13.3333V11.6667C26.6666 10.1167 26.6666 9.34174 26.4963 8.7059C26.0339 6.98044 24.6862 5.63271 22.9607 5.17037C22.3249 5 21.5499 5 20 5V5C18.45 5 17.675 5 17.0392 5.17037C15.3138 5.63271 13.966 6.98044 13.5037 8.7059C13.3333 9.34174 13.3333 10.1167 13.3333 11.6667V13.3333" stroke="#DC0D11" stroke-width="2" stroke-linecap="round"/>
<ellipse cx="20" cy="25" rx="3.33333" ry="3.33333" fill="#DC0D11"/>
</svg>
