<svg width="29" height="30" viewBox="0 0 29 30" fill="none" xmlns="http://www.w3.org/2000/svg">
<path d="M28.8392 11.3255C28.8362 11.2924 28.8296 11.2597 28.8194 11.228C28.8128 11.1996 28.8037 11.172 28.792 11.1453C28.7786 11.1192 28.7625 11.0945 28.744 11.0717C28.7255 11.0446 28.704 11.0196 28.68 10.9971C28.6723 10.9904 28.669 10.9812 28.6608 10.9745L24.0372 7.38367V3.66203C24.0372 2.86549 23.3915 2.21971 22.5949 2.21971H17.3848L15.2986 0.599974C14.7833 0.198039 14.0606 0.198039 13.5453 0.599974L11.4587 2.21971H6.24852C5.45197 2.21971 4.8062 2.86543 4.8062 3.66203V7.38373L0.184065 10.9746C0.175896 10.9814 0.172515 10.9905 0.164853 10.9972C0.140908 11.0196 0.119442 11.0446 0.100906 11.0717C0.0824264 11.0945 0.066313 11.1192 0.0528475 11.1453C0.041185 11.172 0.0320578 11.1997 0.025466 11.228C0.0154373 11.2593 0.00884548 11.2915 0.00574675 11.3242C0.00574675 11.3343 0 11.343 0 11.353V27.7007C0.000676088 28.0065 0.0996103 28.304 0.28221 28.5492C0.285084 28.5536 0.285591 28.5589 0.288915 28.5627C0.292295 28.5665 0.299507 28.5709 0.304296 28.5762C0.574393 28.9316 0.994469 29.1411 1.44086 29.143H27.4026C27.8508 29.1416 28.2726 28.9311 28.543 28.5738C28.5469 28.569 28.5527 28.5675 28.556 28.5627C28.5594 28.558 28.5598 28.5536 28.5627 28.5493C28.7453 28.304 28.8443 28.0065 28.845 27.7007V11.3544C28.8449 11.3443 28.8397 11.3356 28.8392 11.3255ZM14.1332 1.3586C14.3011 1.22519 14.5389 1.22519 14.7068 1.3586L15.8159 2.21966H13.0274L14.1332 1.3586ZM1.56199 28.1815L14.1333 18.4165C14.3013 18.2833 14.5389 18.2833 14.7068 18.4165L27.2814 28.1815H1.56199ZM27.8834 27.4319L15.2986 17.6578C14.7832 17.2562 14.0607 17.2562 13.5453 17.6578L0.960045 27.4319V12.0866L8.8385 18.2045C9.04842 18.3672 9.35052 18.329 9.51329 18.1191C9.67606 17.9092 9.63786 17.6071 9.42793 17.4443L1.42401 11.2294L4.80625 8.60097V12.3159C4.80625 12.5814 5.02153 12.7967 5.28701 12.7967C5.55254 12.7967 5.76776 12.5814 5.76776 12.3159V3.66198C5.76776 3.39644 5.98298 3.18122 6.24852 3.18122H22.5948C22.8603 3.18122 23.0756 3.39644 23.0756 3.66198V12.3159C23.0756 12.5814 23.2908 12.7967 23.5563 12.7967C23.8218 12.7967 24.0371 12.5814 24.0371 12.3159V8.60097L27.4193 11.2294L19.4015 17.4554C19.2635 17.5599 19.1924 17.7305 19.2153 17.9021C19.2381 18.0736 19.3514 18.2197 19.512 18.2844C19.6725 18.3491 19.8554 18.3227 19.9909 18.215L27.8833 12.0866V27.4319H27.8834Z" fill="white"/>
<path d="M20.1909 11.8346V9.91156C20.1909 6.72527 17.6079 4.14227 14.4216 4.14227C11.2353 4.14227 8.65234 6.72527 8.65234 9.91156C8.65234 13.0978 11.2353 15.6808 14.4216 15.6808C14.6872 15.6808 14.9024 15.4656 14.9024 15.2001C14.9024 14.9346 14.6872 14.7193 14.4216 14.7193C11.7664 14.7193 9.61391 12.5668 9.61391 9.91161C9.61391 7.25639 11.7664 5.1039 14.4216 5.1039C17.0768 5.1039 19.2293 7.25639 19.2293 9.91161V11.8347C19.2293 12.3658 18.7988 12.7963 18.2678 12.7963C17.7367 12.7963 17.3062 12.3658 17.3062 11.8347V9.91161C17.3062 9.64608 17.091 9.43086 16.8255 9.43086C16.5599 9.43086 16.3447 9.64608 16.3447 9.91161C16.3447 10.9737 15.4837 11.8347 14.4216 11.8347C13.3595 11.8347 12.4986 10.9737 12.4986 9.91161C12.4986 8.84953 13.3595 7.98854 14.4216 7.98854C14.6872 7.98854 14.9024 7.77332 14.9024 7.50778C14.9024 7.24225 14.6872 7.02703 14.4216 7.02703C13.1306 7.02415 11.9948 7.87946 11.641 9.1211C11.2872 10.3627 11.8014 11.6883 12.9 12.3664C13.9987 13.0445 15.4141 12.9101 16.3654 12.0372C16.4701 13.0539 17.3538 13.8099 18.3744 13.7558C19.3952 13.7018 20.1941 12.8568 20.1909 11.8346Z" fill="white"/>
</svg>
