<svg width="121" height="199" viewBox="0 0 121 199" fill="none" xmlns="http://www.w3.org/2000/svg">
<path d="M82.1545 48.1907L87.7118 47.5188C91.2299 49.8731 95.4938 51.2137 100.104 51.0983C110.978 50.8247 120.026 42.1372 120.789 31.262C121.672 18.6952 111.601 8.06423 98.9429 8.39095C88.1968 8.66883 79.2223 17.1517 78.3004 27.8862C77.8433 33.2131 79.3624 38.2048 82.2156 42.1877L82.2063 42.1801L82.1545 48.1907Z" fill="white"/>
<path d="M82.1544 48.1912C82.1544 48.1912 82.1649 48.048 82.1721 47.7853C82.179 47.5074 82.1885 47.1218 82.2003 46.6233C82.2196 45.5951 82.2479 44.1055 82.2843 42.1814L82.157 42.2412L82.1662 42.2488L82.2761 42.2379L82.279 42.1419C80.7662 39.9887 79.0872 36.794 78.5402 32.6241C78.2603 30.5509 78.2937 28.2623 78.7184 25.8818C79.1631 23.5072 80.0623 21.0551 81.4714 18.7453C82.8895 16.4448 84.8303 14.3018 87.225 12.5764C89.6154 10.8586 92.4581 9.51809 95.5764 8.9598C98.6802 8.37542 102.02 8.49246 105.237 9.37746C108.465 10.2431 111.517 12.0021 114.038 14.3986C115.347 15.5817 116.4 16.9905 117.368 18.4178C117.797 19.1655 118.239 19.9065 118.606 20.677L119.11 21.8525L119.358 22.4386L119.547 23.0449C120.617 26.2548 120.856 29.6289 120.422 32.795C120.003 35.9746 118.764 38.9033 117.134 41.3874C115.492 43.874 113.408 45.9126 111.149 47.4274C108.882 48.9356 106.452 49.93 104.088 50.4639C103.492 50.5692 102.904 50.6727 102.327 50.7738C101.748 50.8622 101.17 50.874 100.608 50.927C99.4797 51.0146 98.3858 50.9624 97.3458 50.8656C93.1613 50.453 89.9269 48.8825 87.7537 47.4552L87.7021 47.4434C85.9346 47.6767 84.5592 47.8577 83.6072 47.9832C83.1468 48.0464 82.7894 48.096 82.5308 48.1314C82.2866 48.1659 82.1544 48.1912 82.1544 48.1912C82.1544 48.1912 82.2685 48.1861 82.5059 48.1626C82.7608 48.1356 83.1136 48.0994 83.5678 48.0514C84.5333 47.9453 85.928 47.7921 87.7205 47.5942L87.6694 47.5824C89.8386 49.0476 93.0901 50.6652 97.3206 51.1114C98.372 51.2167 99.478 51.2765 100.621 51.1948C101.191 51.1443 101.777 51.135 102.364 51.0491C102.949 50.9489 103.545 50.847 104.151 50.7443C106.55 50.2147 109.019 49.2177 111.326 47.6952C113.624 46.1661 115.748 44.103 117.423 41.5802C119.087 39.0608 120.354 36.0841 120.786 32.8489C121.234 29.6272 120.995 26.1933 119.908 22.9236L119.716 22.3064L119.465 21.7094C119.294 21.3119 119.123 20.9128 118.952 20.512C118.579 19.728 118.13 18.9727 117.692 18.2115C116.709 16.7564 115.635 15.3232 114.303 14.1182C111.737 11.678 108.627 9.88858 105.34 9.01031C102.063 8.111 98.6661 7.99648 95.5068 8.59687C92.3343 9.17115 89.4454 10.5403 87.0212 12.2935C84.5921 14.0534 82.6283 16.236 81.1971 18.5769C79.7751 20.9271 78.8739 23.4196 78.4352 25.8295C78.0161 28.2454 77.9964 30.5619 78.2934 32.6578C78.8753 36.874 80.6008 40.0847 82.1521 42.2336L82.2647 42.1275L82.2554 42.12L82.1459 42.1301L82.1282 42.1798C82.1311 44.1258 82.1334 45.6322 82.135 46.6713C82.1387 47.1614 82.1413 47.5411 82.1432 47.8148C82.1461 48.0691 82.1544 48.1912 82.1544 48.1912Z" fill="#17282F"/>
<path d="M108.943 31.0537L106.273 28.189L100.782 32.7563L90.6619 22.3081L88.0014 24.9909L100.995 38.1118L108.943 31.0537Z" fill="#3BC873"/>
<path d="M61.9447 20.9453C60.6625 12.6207 53.2175 6.68084 44.8366 7.29301L44.0041 7.35363C35.0627 8.53504 31.0687 16.8057 32.4944 25.7315L35.6071 57.413L35.7575 63.9608L57.053 65.8967L56.5954 52.071C56.5954 52.071 65.1299 50.0947 64.6078 41.4367C64.3554 37.255 63.1372 28.6863 61.9447 20.9453Z" fill="#A67768"/>
<path d="M56.6657 52.0537C56.6657 52.0537 51.1783 52.788 45.116 49.5613C45.116 49.5613 48.1167 55.8059 56.6722 54.398L56.6657 52.0537Z" fill="#815146"/>
<path d="M58.6004 29.5724C58.6709 30.2233 58.1794 30.8195 57.5023 30.9054C56.827 30.9913 56.2215 30.5349 56.1512 29.8848C56.0807 29.2339 56.572 28.6369 57.2473 28.551C57.9241 28.4643 58.5299 28.9215 58.6004 29.5724Z" fill="#17282F"/>
<path d="M60.3966 25.3133C60.2558 25.485 59.272 24.8602 57.9455 24.9613C56.6196 25.0421 55.6958 25.7974 55.5403 25.645C55.4644 25.5777 55.599 25.2754 56 24.9352C56.3948 24.5967 57.0846 24.2455 57.9113 24.1882C58.7376 24.1327 59.4547 24.387 59.8771 24.6699C60.3077 24.9537 60.4668 25.235 60.3966 25.3133Z" fill="#17282F"/>
<path d="M46.172 30.7604C46.2422 31.4105 45.7506 32.0066 45.0739 32.0934C44.3985 32.1793 43.793 31.7229 43.7225 31.072C43.6523 30.4219 44.1438 29.8249 44.8192 29.7382C45.4956 29.6523 46.1014 30.1095 46.172 30.7604Z" fill="#17282F"/>
<path d="M47.378 26.5121C47.2369 26.6848 46.2513 26.0608 44.9262 26.161C43.6007 26.2418 42.6765 26.9972 42.521 26.8447C42.4452 26.7774 42.5781 26.4759 42.9811 26.1349C43.3759 25.7972 44.0657 25.4452 44.8921 25.3888C45.7184 25.3324 46.4358 25.5867 46.8578 25.8696C47.2874 26.1534 47.4475 26.4347 47.378 26.5121Z" fill="#17282F"/>
<path d="M52.9081 36.0197C52.8959 35.9447 53.7101 35.741 55.0336 35.4723C55.3697 35.4134 55.6854 35.3225 55.7258 35.0858C55.7874 34.8349 55.6194 34.4796 55.4264 34.0964C55.0484 33.2982 54.6526 32.462 54.2372 31.5846C52.5786 28.0058 51.3522 25.0536 51.4963 24.9879C51.641 24.9222 53.102 27.7692 54.7602 31.348C55.161 32.2313 55.5442 33.0733 55.9085 33.8783C56.0648 34.2547 56.3171 34.6766 56.1813 35.1978C56.1084 35.458 55.8731 35.661 55.6604 35.7351C55.4481 35.8176 55.2577 35.8344 55.0914 35.8572C53.7518 36.0273 52.9186 36.0946 52.9081 36.0197Z" fill="#17282F"/>
<path d="M49.0714 37.2241C49.286 37.1963 49.3939 38.6388 50.7004 39.5726C52.0052 40.5107 53.5279 40.2361 53.5539 40.4374C53.5804 40.5267 53.2326 40.7422 52.5861 40.8079C51.9524 40.8761 51.0096 40.7389 50.2098 40.1679C49.4126 39.5945 49.0287 38.7802 48.9365 38.1916C48.8377 37.5921 48.9723 37.2233 49.0714 37.2241Z" fill="#17282F"/>
<path d="M47.3417 21.2779C47.237 21.6484 45.9003 21.5743 44.3579 21.8758C42.8092 22.1461 41.5878 22.6943 41.3577 22.3853C41.2547 22.2371 41.4486 21.8809 41.9305 21.4935C42.4079 21.1078 43.1864 20.7171 44.1128 20.5454C45.0395 20.3744 45.9056 20.4603 46.4891 20.6506C47.0771 20.8392 47.3853 21.1019 47.3417 21.2779Z" fill="#17282F"/>
<path d="M59.6294 21.5012C59.4182 21.8203 58.4818 21.5736 57.3821 21.6384C56.2801 21.6654 55.3675 21.9896 55.1306 21.6898C55.0256 21.5433 55.1499 21.2301 55.5359 20.9143C55.9155 20.6002 56.569 20.319 57.3254 20.2861C58.0821 20.2558 58.7562 20.4815 59.1612 20.7627C59.5714 21.0448 59.7217 21.3463 59.6294 21.5012Z" fill="#17282F"/>
<path d="M34.4929 34.0504C34.3417 32.7191 33.1168 31.749 31.7987 31.9722C30.2007 32.2433 28.476 33.29 28.8246 36.6161C29.4421 42.5164 35.2255 40.6774 35.2179 40.5064C35.2129 40.3911 34.7735 36.5168 34.4929 34.0504Z" fill="#A67768"/>
<path d="M33.7041 38.4215C33.6764 38.4055 33.6092 38.5048 33.4445 38.6025C33.2832 38.6977 32.9984 38.7819 32.6792 38.6985C32.0331 38.5352 31.4064 37.6013 31.2661 36.5403C31.1947 36.0056 31.2535 35.4819 31.3989 35.039C31.5333 34.5885 31.7803 34.2575 32.0878 34.1691C32.3919 34.0639 32.633 34.2281 32.722 34.3864C32.8187 34.543 32.7935 34.6651 32.8262 34.6718C32.8439 34.6853 32.9422 34.5598 32.8691 34.3207C32.8321 34.2062 32.7489 34.0748 32.5985 33.9754C32.4448 33.8752 32.2314 33.8382 32.0155 33.8854C31.5652 33.9645 31.2006 34.4259 31.0401 34.9127C30.8553 35.4044 30.7772 35.9938 30.857 36.5951C31.0191 37.7798 31.7433 38.8282 32.6204 38.9857C33.0455 39.0496 33.3782 38.888 33.542 38.7305C33.7083 38.5655 33.726 38.4299 33.7041 38.4215Z" fill="#815146"/>
<path d="M29.776 28.0349C30.2624 29.7266 30.0852 32.5357 31.5957 32.1542C34.5899 31.3981 33.8716 37.5493 35.3091 36.9464C36.7264 36.3527 37.979 34.6012 38.068 30.8179C38.1806 26.0131 36.2508 22.5438 38.1403 17.041C39.4055 14.8331 41.6595 13.3301 44.1993 13.2711C46.7386 13.2122 49.1927 14.5005 50.5589 16.6478C50.8284 14.9712 51.6422 12.4425 53.1325 11.635C54.6227 10.8275 56.6121 10.9226 57.8956 12.0316C59.179 13.1398 59.5299 15.2567 58.5191 16.6191C59.2017 16.8414 60.0166 16.5484 60.4015 15.9413C60.4642 16.7227 60.1859 17.526 59.6533 18.1003C60.265 17.9454 60.816 17.5606 61.1727 17.0393C61.024 17.7332 60.8754 18.427 60.7264 19.1209C63.251 19.1883 65.7212 16.7379 66.4222 14.5578C67.4848 11.2536 66.6654 7.92071 64.823 4.98109C62.9806 2.04063 59.6815 -0.0308418 56.2179 0.000312805C52.7544 0.0323105 49.8536 1.67684 48.517 4.88002C46.2693 3.28517 41.7156 2.73279 39.2081 3.87461C36.7012 5.01728 34.8823 7.55356 34.6025 10.2995C33.0349 9.63512 31.1521 10.1521 29.8315 11.2275C29.7214 11.3176 29.6139 11.4102 29.5105 11.5062C27.6992 13.1827 26.9574 15.7333 27.4195 18.1609C27.6034 19.1242 27.9344 20.1204 28.131 20.8926C28.7124 23.188 29.776 28.0349 29.776 28.0349Z" fill="#17282F"/>
<path d="M60.7946 15.7865C60.8005 15.7932 60.8694 15.7385 60.9957 15.6265C61.1221 15.5153 61.2992 15.3385 61.4919 15.0808C61.8835 14.579 62.3458 13.7234 62.4807 12.5681C62.6224 11.4356 62.359 9.93669 61.3049 8.78223C60.2964 7.6362 58.5905 6.82108 56.8023 7.07707C55.9195 7.20169 55.1066 7.55703 54.4138 8.01511C53.7195 8.47656 53.1323 9.0357 52.6545 9.6285C51.687 10.8108 51.1328 12.0999 50.8476 13.2089C50.5582 14.323 50.5277 15.2627 50.5535 15.9001C50.5756 16.2193 50.5955 16.4668 50.6264 16.6327C50.652 16.7995 50.6697 16.8853 50.6789 16.8845C50.7515 16.8912 50.4259 15.4505 51.0254 13.2578C51.3277 12.1757 51.8879 10.9244 52.8396 9.78176C53.7723 8.65257 55.1493 7.58315 56.8391 7.33559C58.5246 7.09223 60.1559 7.85849 61.1263 8.94306C62.1381 10.0327 62.4098 11.4499 62.2972 12.5488C62.1906 13.6678 61.7685 14.5116 61.4099 15.021C61.0485 15.5372 60.7748 15.7662 60.7946 15.7865Z" fill="#394D93"/>
<path d="M61.9507 18.4291C61.9589 18.4333 62.02 18.3339 62.1296 18.1411C62.2382 17.9482 62.3964 17.662 62.5913 17.2881C62.973 16.5386 63.5457 15.4499 63.9779 13.9923C64.187 13.2647 64.3497 12.4387 64.3651 11.5402C64.3779 10.6459 64.2538 9.66999 63.8535 8.73278C63.4607 7.79388 62.7548 6.92994 61.8316 6.32029C60.9085 5.71401 59.795 5.32834 58.6273 5.25677C57.4584 5.17845 56.3173 5.40834 55.2927 5.79148C54.2675 6.18219 53.3516 6.73037 52.5614 7.35013C50.976 8.59048 49.9343 10.1946 49.5783 11.6842C49.2097 13.1772 49.4444 14.4529 49.7522 15.236C49.9016 15.6351 50.0781 15.9164 50.1932 16.1058C50.3222 16.2877 50.3934 16.3803 50.4007 16.3753C50.4272 16.3601 50.1256 15.9905 49.8477 15.2006C49.5747 14.4226 49.3761 13.1746 49.7565 11.7305C50.125 10.2914 51.1518 8.74289 52.7093 7.53959C54.2472 6.34808 56.3399 5.38056 58.6106 5.51781C59.7326 5.58602 60.8051 5.95653 61.6909 6.53418C62.5772 7.11604 63.25 7.93199 63.633 8.82794C64.0228 9.72305 64.1524 10.667 64.1488 11.5377C64.1429 12.4134 63.9949 13.2218 63.8003 13.9426C63.3977 15.3842 62.8535 16.4814 62.5004 17.2426C62.3284 17.603 62.19 17.8927 62.083 18.1167C61.9885 18.3179 61.9429 18.4249 61.9507 18.4291Z" fill="#394D93"/>
<path d="M31.8568 24.2117C31.8871 24.173 31.3133 23.7688 30.5958 22.9149C29.88 22.0712 29.0584 20.7214 28.7139 19.0583C28.3703 17.3944 28.5879 15.8282 28.9105 14.7689C29.2289 13.6995 29.5952 13.0991 29.5524 13.0764C29.5381 13.0688 29.4339 13.2094 29.2768 13.4848C29.1189 13.7593 28.9197 14.1752 28.7349 14.7133C28.3602 15.7794 28.1031 17.3927 28.4585 19.1114C28.8147 20.8292 29.6901 22.2068 30.4572 23.0362C30.8403 23.4555 31.1881 23.7578 31.4418 23.9465C31.6955 24.1368 31.8467 24.2243 31.8568 24.2117Z" fill="#394D93"/>
<path d="M37.227 24.0418C37.2379 24.0165 36.9321 23.9104 36.4658 23.5913C36.0079 23.273 35.3787 22.7055 34.9788 21.796L34.7301 21.231L34.7855 21.8466C34.8603 22.6785 34.946 23.6368 35.0393 24.6759L35.2317 24.5605C34.536 24.0873 33.8589 23.4473 33.3044 22.6692C32.5979 21.6866 32.1686 20.5877 31.9871 19.5562C31.8065 18.5221 31.8586 17.5613 32.0039 16.7791C32.3038 15.2053 32.8919 14.359 32.8373 14.3363C32.8297 14.3312 32.7911 14.3809 32.7256 14.4811C32.6575 14.5788 32.5701 14.7312 32.4634 14.9316C32.2543 15.3333 31.9972 15.9454 31.8233 16.7437C31.6511 17.5386 31.5771 18.5255 31.7502 19.5966C31.9249 20.6643 32.3626 21.8061 33.0927 22.8217C33.6657 23.6258 34.3697 24.2843 35.0939 24.7668L35.314 24.9133L35.2863 24.6514C35.1762 23.614 35.0746 22.6575 34.9872 21.8272L34.7939 21.8786C35.2375 22.8259 35.9147 23.3892 36.4036 23.6865C36.6515 23.8372 36.859 23.9273 37.0018 23.9812C37.1455 24.0317 37.2236 24.0511 37.227 24.0418Z" fill="#394D93"/>
<path d="M38.8635 11.596C38.9155 11.6322 39.1667 10.754 40.2288 9.89001C40.7546 9.47066 41.4782 9.0749 42.3501 8.90059C43.2185 8.72207 44.226 8.80376 45.1888 9.15826C46.152 9.51951 46.9691 10.1056 47.5661 10.7683C48.1699 11.4293 48.5729 12.1434 48.846 12.7648C49.3799 14.0228 49.4354 14.8927 49.4888 14.8817C49.503 14.88 49.5033 14.6645 49.4465 14.2805C49.3898 13.8974 49.2687 13.3441 49.0163 12.6941C48.7587 12.0482 48.361 11.3021 47.7443 10.6074C47.1346 9.90938 46.2853 9.28963 45.2794 8.91323C44.2729 8.54189 43.2132 8.46358 42.3018 8.66483C41.3876 8.86187 40.642 9.29384 40.111 9.74771C39.5809 10.2092 39.255 10.6858 39.0785 11.0318C38.992 11.207 38.9315 11.3451 38.9013 11.4436C38.8685 11.5405 38.8551 11.5927 38.8635 11.596Z" fill="#394D93"/>
<path d="M40.2426 7.08545C40.2695 7.13429 40.8166 6.69893 41.8687 6.45641C42.9004 6.20632 44.4734 6.24422 45.9174 7.02986C47.3597 7.82139 48.2829 9.07269 48.7846 10.0175C49.2956 10.9724 49.46 11.6359 49.5063 11.6216C49.5217 11.6174 49.4964 11.449 49.4157 11.1517C49.3353 10.8545 49.1886 10.4309 48.9484 9.93243C48.4788 8.94638 47.5488 7.62856 46.0417 6.79998C44.5289 5.97729 42.8815 5.97056 41.8241 6.27706C41.2885 6.42611 40.8809 6.624 40.6216 6.79241C40.3611 6.9583 40.2341 7.07366 40.2426 7.08545Z" fill="#394D93"/>
<path d="M72.9475 149.051C72.9475 149.051 75.5378 158.223 74.934 169.485C74.7003 173.842 60.7362 299.75 60.7362 299.75L42.9695 298.148L46.0413 180.431L45.2959 181.097C45.2959 181.097 34.7125 230.623 34.0118 238.453C33.3817 245.491 24.9334 302.025 24.9334 302.025L7.69321 301.204L11.5989 229.736L16.8287 164.853L18.9223 145.954L72.9475 149.051Z" fill="#17282F"/>
<path d="M42.6262 170.281C42.6153 170.306 42.9094 170.47 43.4617 170.728C44.0163 170.975 44.8308 171.351 45.9305 171.531C46.4789 171.617 47.1018 171.632 47.7525 171.501C48.3987 171.371 49.0862 171.078 49.6362 170.54C50.1863 170.002 50.5312 169.259 50.7449 168.49C50.9601 167.714 51.075 166.911 51.2197 166.093C51.775 162.814 52.1333 159.824 52.3325 157.655C52.4326 156.571 52.4947 155.691 52.5259 155.083C52.556 154.475 52.5574 154.137 52.5288 154.135C52.4996 154.133 52.4434 154.465 52.3637 155.068C52.2754 155.76 52.1668 156.613 52.0382 157.623C51.7641 159.779 51.3605 162.755 50.8065 166.023C50.5246 167.639 50.3451 169.284 49.3639 170.267C48.384 171.232 46.9922 171.363 45.9705 171.237C44.9155 171.103 44.0928 170.776 43.524 170.577C42.9557 170.367 42.6379 170.253 42.6262 170.281Z" fill="#394D93"/>
<path d="M48.2243 154.804C48.2306 154.785 48.094 154.704 47.815 154.693C47.5394 154.678 47.1229 154.772 46.717 155.075C46.3281 155.376 45.9199 155.909 45.9192 156.624C45.9035 157.349 46.4837 158.048 47.225 158.297C47.9595 158.565 48.8481 158.38 49.2859 157.802C49.7297 157.242 49.7414 156.569 49.6237 156.091C49.4937 155.601 49.2256 155.268 49.0011 155.107C48.776 154.942 48.6185 154.921 48.6116 154.939C48.5587 154.995 49.1757 155.259 49.3342 156.154C49.4041 156.575 49.348 157.139 48.9906 157.553C48.6473 157.977 47.972 158.116 47.3629 157.901C46.7531 157.689 46.3104 157.16 46.3052 156.613C46.2825 156.067 46.588 155.59 46.905 155.304C47.584 154.703 48.2312 154.88 48.2243 154.804Z" fill="#394D93"/>
<path d="M17.0781 163.687C17.0764 163.715 17.3167 163.747 17.7536 163.777C18.1904 163.814 18.8264 163.811 19.6086 163.755C21.172 163.649 23.3328 163.219 25.5306 162.235C27.7259 161.243 29.4842 159.912 30.6024 158.811C31.1645 158.263 31.5896 157.789 31.8517 157.437C32.1197 157.089 32.2566 156.89 32.234 156.871C32.1768 156.824 31.5593 157.567 30.4025 158.593C29.2498 159.62 27.5066 160.882 25.3592 161.852C23.2102 162.814 21.1115 163.28 19.58 163.459C18.0459 163.644 17.0806 163.612 17.0781 163.687Z" fill="#394D93"/>
<path d="M64.963 154.781C64.9206 154.804 65.2747 155.599 66.0358 156.779C66.7932 157.958 67.9946 159.499 69.5637 160.963C71.1369 162.424 72.7601 163.51 73.9894 164.18C75.2197 164.852 76.0365 165.148 76.0559 165.104C76.0844 165.043 75.3156 164.653 74.1387 163.924C72.9619 163.196 71.3955 162.091 69.8488 160.656C68.3061 159.217 67.0905 157.733 66.2793 156.61C65.4664 155.488 65.022 154.749 64.963 154.781Z" fill="#394D93"/>
<path d="M82.5917 83.6582C85.2348 91.3782 84.9401 90.7214 89.8778 113.79C90.7889 118.047 89.1818 124.7 85.3527 126.755C81.5238 128.81 74.7172 126.554 72.4384 122.848L68.7697 88.0268L82.5917 83.6582Z" fill="#A67768"/>
<path d="M18.9089 125.5L19.0105 107.154L18.9383 105.356L0.360603 101.01C0.360603 101.01 4.00758 88.9659 7.35297 76.0226C9.28525 68.5502 15.7147 64.7938 17.2673 63.9829V63.9728L17.6058 63.8128L17.6092 63.812L35.4879 56.2267C39.0971 60.0876 44.362 63.1838 49.429 61.7001C52.1994 60.8892 55.0434 58.8388 56.781 56.6697L68.833 60.8134L68.8335 60.8185C71.926 61.951 75.2028 64.1126 77.1636 67.5878C79.6856 72.0574 87.7403 92.5581 87.8804 93.0162L72.9574 94.3593C72.9574 94.3593 75.6058 142.874 74.6679 151.542C74.6679 151.542 71.0442 154.054 61.8973 154.487C43.3552 155.365 15.7559 154.044 15.7559 154.044C16.1886 151.244 16.6422 146.569 16.8968 144.201L18.9089 125.5Z" fill="#6C97FF"/>
<path d="M20.9528 79.524C21.0847 79.5308 20.71 89.7979 20.1143 102.454C19.5195 115.114 18.9298 125.369 18.7979 125.363C18.6651 125.356 19.0407 115.092 19.6355 102.431C20.2303 89.7752 20.82 79.5181 20.9528 79.524Z" fill="#17282F"/>
<path d="M0.279793 109.741C0.884682 105.188 1.38708 101.16 1.38708 101.16L16.2422 104.617L15.6079 107.015L27.0907 95.3246L28.9096 95.4812L34.6888 101.507C34.6888 101.507 29.6506 112.174 26.7202 116.328C22.9077 121.731 16.9117 129.968 8.70373 129.275C1.11656 128.636 -0.805649 117.911 0.279793 109.741Z" fill="#A67768"/>
<path d="M47.1393 80.0672L42.0362 77.4543L35.4171 79.5637L32.1347 82.5942L27.0906 95.3252L23.0496 100.45L30.1797 109.76L34.6887 101.508C34.6887 101.508 38.5171 99.8311 40.0481 97.411C41.5787 94.9901 42.2696 93.6731 42.2696 93.6731C42.2696 93.6731 44.4808 92.6096 44.89 91.5882C45.2992 90.5668 45.2808 89.7719 45.2808 89.7719L44.1614 88.1358C44.1614 88.1358 44.2707 86.615 43.8251 86.0475C43.3791 85.4791 42.9433 85.3444 42.9433 85.3444C42.9433 85.3444 43.2721 83.9634 42.7559 83.4691C42.2396 82.9757 39.7 82.0662 39.7 82.0662L41.926 80.7989C41.926 80.7989 46.8646 82.3332 47.1393 80.0672Z" fill="#A67768"/>
<path d="M39.5616 84.6891C39.5625 84.7539 40.3444 84.7733 41.2787 84.9746C42.2146 85.1682 42.9379 85.4672 42.9645 85.4082C42.9911 85.3594 42.2888 84.9611 41.3236 84.7598C40.3598 84.5535 39.5566 84.6335 39.5616 84.6891Z" fill="#815146"/>
<path d="M41.0932 87.5472C41.0968 87.6103 41.7636 87.6095 42.5689 87.7341C43.3756 87.8537 44.0122 88.0533 44.0345 87.9935C44.0569 87.9413 43.4357 87.6424 42.6018 87.5177C41.7689 87.3889 41.0869 87.4908 41.0932 87.5472Z" fill="#815146"/>
<path d="M43.2522 92.0208C43.3126 92.0191 43.3552 91.7277 43.3481 91.369C43.3405 91.0103 43.2857 90.7198 43.2256 90.7215C43.1653 90.7223 43.1226 91.0145 43.1298 91.3732C43.1371 91.7319 43.1922 92.0216 43.2522 92.0208Z" fill="#815146"/>
<path d="M42.2758 93.4016C42.3381 93.4024 42.2981 92.781 42.747 92.2227C43.1796 91.6501 43.7909 91.5398 43.7749 91.4792C43.7725 91.4539 43.6134 91.4371 43.3709 91.5145C43.1297 91.5895 42.8166 91.7789 42.5754 92.088C42.3352 92.397 42.2265 92.7473 42.2121 92.9999C42.196 93.2542 42.2505 93.4049 42.2758 93.4016Z" fill="#815146"/>
<path d="M38.2846 89.3199C38.3417 89.3468 38.5585 88.7793 39.1751 88.4459C39.7817 88.0947 40.3768 88.2076 40.3847 88.1453C40.3912 88.12 40.2518 88.0493 40.003 88.0316C39.7565 88.0122 39.4028 88.0678 39.0684 88.2547C38.7341 88.4425 38.5014 88.7145 38.3879 88.9351C38.2728 89.1565 38.2602 89.3131 38.2846 89.3199Z" fill="#815146"/>
<path d="M35.9601 86.4897C36.0189 86.5141 36.218 85.9853 36.7758 85.6392C37.3244 85.2771 37.8873 85.3184 37.8898 85.2544C37.8932 85.2283 37.7563 85.1769 37.5219 85.1803C37.2891 85.1828 36.9623 85.2603 36.6582 85.4548C36.3549 85.6493 36.1474 85.9137 36.0474 86.1242C35.9449 86.3356 35.9349 86.4821 35.9601 86.4897Z" fill="#815146"/>
<path d="M34.4016 85.1019C34.4343 85.096 34.4192 84.9259 34.4553 84.6632C34.4898 84.4021 34.5923 84.0443 34.8275 83.726C35.0644 83.4077 35.3761 83.2056 35.6155 83.0978C35.8558 82.9875 36.0238 82.953 36.0196 82.9193C36.018 82.8932 35.8382 82.8713 35.5618 82.953C35.2887 83.0313 34.9208 83.2342 34.6528 83.5955C34.3856 83.9567 34.2974 84.3676 34.3016 84.6531C34.3033 84.9419 34.3764 85.1078 34.4016 85.1019Z" fill="#815146"/>
<path d="M36.5623 81.7752C36.5581 81.8518 37.6326 81.8695 38.9189 82.0657C40.2085 82.2661 41.1802 82.7183 41.2077 82.6551C41.2373 82.6114 40.2806 82.0573 38.9542 81.8501C38.2972 81.7415 37.6956 81.723 37.263 81.723C36.8303 81.7247 36.5632 81.7449 36.5623 81.7752Z" fill="#815146"/>
<path d="M74.2759 125.144L67.0394 103.602C65.9662 103.992 64.8449 104.111 63.7048 104.111C62.2667 104.111 60.7991 103.922 59.3614 103.851C59.1028 103.838 58.8406 103.831 58.5764 103.831C56.2093 103.831 53.7011 104.387 52.3575 106.285C51.4971 107.501 51.2847 109.047 51.0973 110.525C50.9585 111.623 50.8493 112.843 51.5046 113.732C52.0165 114.427 52.8813 114.751 53.709 114.991C55.6606 115.557 57.6897 115.856 59.7214 115.878C59.8691 115.88 60.018 115.881 60.1678 115.881C60.2655 115.881 60.3637 115.88 60.4621 115.88C60.5596 115.88 60.657 115.88 60.7548 115.88C62.395 115.88 64.074 115.932 65.3454 116.912C66.4644 117.775 67.0012 119.171 67.7413 120.375C69.1902 122.734 71.5911 124.487 74.2759 125.144Z" fill="#2C63EA"/>
<path d="M69.7391 85.3087L67.4911 109.282C67.3664 110.611 66.8518 111.536 66.0117 112.042L51.5061 111.733C50.9141 111.198 50.2683 109.487 50.3962 107.658L52.0033 84.7116C52.0997 83.3332 52.614 82.3362 53.2356 82.3219L68.5153 81.9682C69.2935 81.9505 69.8989 83.6035 69.7391 85.3087Z" fill="#17282F"/>
<path d="M71.848 90.1307C72.4617 89.4208 72.38 88.2697 71.8011 87.5312C71.2222 86.7919 70.2531 86.4366 69.3158 86.4231C68.3782 86.4096 67.4627 86.6993 66.595 87.0555C65.5238 87.4942 64.4953 88.039 63.5295 88.6781C62.8472 89.1295 62.1436 89.713 62.0265 90.5239C61.9096 91.3348 62.8069 92.2366 63.5075 91.8148C62.5939 92.2265 61.6855 93.2261 61.5611 94.2517C61.4364 95.2773 61.994 95.8137 62.989 96.0857C62.2441 96.3956 61.7853 97.353 62.1463 98.0763C62.5256 98.8358 63.5876 99.0228 64.3723 98.7003C65.1572 98.3786 65.7263 97.6948 66.2622 97.0364C65.721 98.0182 65.766 99.592 66.0045 100.688C68.1675 99.8909 70.3007 97.4793 69.6551 95.1872C70.7063 94.3569 71.1825 92.6425 70.5242 91.4746C71.3975 91.179 72.3633 89.8115 72.2731 88.892" fill="#A67768"/>
<path d="M72.088 88.0399L72.2606 98.2886L74.9116 102.284L87.0734 113.18C87.0734 113.18 85.2698 127.989 79.7817 126.372C74.294 124.755 72.964 123.703 69.7183 117.727C67.9799 114.527 66.9091 109.323 65.9072 106.336C65.3197 104.585 65.8367 98.9445 65.8367 98.9445L72.088 88.0399Z" fill="#A67768"/>
<path d="M63.0082 96.095C63.0335 96.122 63.3706 95.8138 63.9353 95.3507C64.4998 94.8993 65.3229 94.2745 66.3914 94.0185C66.9208 93.8931 67.4488 93.8813 67.904 93.9849C68.3604 94.0876 68.7417 94.2931 69.0204 94.512C69.5848 94.9608 69.7194 95.4265 69.7598 95.4037C69.7719 95.3995 69.7559 95.2833 69.6686 95.0905C69.5822 94.8993 69.4123 94.6366 69.1287 94.3823C68.8455 94.1305 68.4454 93.8931 67.9548 93.7701C67.4645 93.6455 66.8971 93.6523 66.3363 93.7853C65.2034 94.0581 64.3682 94.7335 63.8254 95.2218C63.2813 95.7245 62.9879 96.074 63.0082 96.095Z" fill="#815146"/>
<path d="M63.1535 91.9217C63.1676 91.9537 63.6093 91.7701 64.288 91.4173C64.6286 91.2447 65.0312 91.0359 65.495 90.8548C65.9564 90.6805 66.4942 90.5247 67.0538 90.4111C67.616 90.3016 68.1643 90.2763 68.6465 90.3589C69.1278 90.4405 69.5381 90.6308 69.8383 90.8456C70.4521 91.2809 70.5902 91.7735 70.6302 91.7491C70.6421 91.7457 70.6249 91.6236 70.5311 91.424C70.4363 91.2278 70.2502 90.9567 69.9397 90.71C69.6323 90.4624 69.2014 90.2418 68.6864 90.1416C68.1719 90.0406 67.5913 90.0625 67.0088 90.1761C66.4253 90.2949 65.893 90.4565 65.4129 90.6502C64.9381 90.8481 64.5387 91.0763 64.2072 91.2683C63.5489 91.6598 63.1406 91.8931 63.1535 91.9217Z" fill="#815146"/>
</svg>
