<svg width="30" height="30" viewBox="0 0 30 30" fill="none" xmlns="http://www.w3.org/2000/svg">
<path d="M28.8305 21.9544L24.6427 17.7648C24.0803 17.2053 23.3272 16.897 22.5224 16.897C21.6849 16.897 20.8942 17.2267 20.2963 17.825L18.6662 19.4548C17.3995 18.7507 15.7158 17.7823 13.9679 16.0343C12.2219 14.2878 11.2534 12.6091 10.5458 11.3356L12.1775 9.70506C13.3906 8.48941 13.4154 6.53911 12.233 5.35773L8.04601 1.17065C7.48517 0.608251 6.73207 0.298523 5.92526 0.298523C5.10647 0.298523 4.33192 0.613764 3.73751 1.18755C3.37792 1.47714 1.57337 3.07013 0.900818 6.35535C-0.0408309 10.9537 2.12271 15.378 8.36856 21.6263C15.3457 28.6013 21.3021 29.1435 22.9615 29.1435C23.3069 29.1435 23.5154 29.1221 23.571 29.1157C26.8249 28.7343 27.99 27.2892 28.8407 26.234C29.9429 24.8665 29.9391 23.0671 28.8305 21.9544ZM27.4409 25.1055C26.6413 26.0973 25.8862 27.0339 23.3618 27.3298C23.3605 27.3299 23.2224 27.3454 22.9615 27.3454C21.4769 27.3454 16.1283 26.8413 9.63996 20.355C3.88015 14.5927 1.85853 10.6412 2.66221 6.7159C3.24883 3.85044 4.80622 2.63251 4.86675 2.58624L4.92045 2.54657L4.96755 2.49934C5.22754 2.2396 5.56759 2.09648 5.92514 2.09648C6.25069 2.09648 6.55179 2.2185 6.77378 2.44121L10.9617 6.62924C11.4435 7.11062 11.4179 7.92065 10.9052 8.43439L9.05994 10.2781L9.02961 10.3099C8.54872 10.8396 8.6053 11.5554 8.87019 12.0216C9.63457 13.4009 10.6816 15.2901 12.6962 17.3054C14.7042 19.3133 16.5906 20.3595 17.9662 21.1224C18.1039 21.1998 18.3882 21.3294 18.7441 21.3294C19.1643 21.3294 19.5502 21.1516 19.8358 20.8273L21.5676 19.096C21.8261 18.8374 22.1651 18.6948 22.5222 18.6948C22.8485 18.6948 23.1511 18.8172 23.3726 19.0375L27.5577 23.2244C28.0893 23.7579 27.8698 24.5736 27.4409 25.1055Z" fill="white"/>
<path d="M18.244 4.70346C19.7887 4.88122 21.6075 5.81687 22.8776 7.08707C24.1595 8.36901 25.0975 10.2063 25.2668 11.7677C25.3168 12.2284 25.7064 12.5698 26.1594 12.5698C26.1918 12.5698 26.2246 12.568 26.2575 12.5645C26.7511 12.5109 27.1078 12.0674 27.0542 11.5738C26.84 9.60001 25.7267 7.39368 24.149 5.81579C22.5859 4.25265 20.4022 3.14211 18.4496 2.91737C17.9566 2.86019 17.5106 3.21451 17.4537 3.70763C17.3969 4.20075 17.7506 4.64664 18.244 4.70346Z" fill="white"/>
<path d="M17.4043 8.46925C18.2397 8.5655 19.3959 9.18519 20.1533 9.94261C20.9172 10.7066 21.5381 11.8739 21.6296 12.7183C21.6796 13.1791 22.0691 13.5204 22.5222 13.5204C22.5546 13.5204 22.5873 13.5186 22.6201 13.5152C23.1137 13.4616 23.4706 13.0181 23.417 12.5245C23.2607 11.0828 22.3036 9.5503 21.4245 8.67122C20.5533 7.79993 19.0358 6.84737 17.6098 6.68304C17.1161 6.62563 16.6707 6.98006 16.6139 7.47318C16.5572 7.96642 16.911 8.41243 17.4043 8.46925Z" fill="white"/>
</svg>
