<svg width="37" height="37" viewBox="0 0 37 37" fill="none" xmlns="http://www.w3.org/2000/svg">
<path d="M15.6383 10.2175C16.851 7.19428 17.4573 5.68268 18.5 5.68268C19.5427 5.68268 20.149 7.19428 21.3617 10.2175L21.4182 10.3583C22.1033 12.0662 22.4458 12.9202 23.144 13.4393C23.8421 13.9583 24.7586 14.0404 26.5915 14.2046L26.9228 14.2342C29.9226 14.5029 31.4225 14.6372 31.7435 15.5915C32.0644 16.5458 30.9505 17.5592 28.7228 19.586L27.9792 20.2624C26.8515 21.2884 26.2876 21.8014 26.0248 22.4738C25.9758 22.5992 25.935 22.7277 25.9028 22.8585C25.7301 23.5594 25.8952 24.3036 26.2254 25.792L26.3282 26.2553C26.9351 28.9908 27.2386 30.3585 26.7087 30.9484C26.5107 31.1689 26.2534 31.3276 25.9676 31.4056C25.2026 31.6143 24.1165 30.7293 21.9444 28.9594C20.5181 27.7971 19.8049 27.216 18.9862 27.0853C18.6641 27.0339 18.3359 27.0339 18.0138 27.0853C17.1951 27.216 16.4819 27.7971 15.0556 28.9594C12.8835 30.7293 11.7974 31.6143 11.0324 31.4056C10.7466 31.3276 10.4892 31.1689 10.2913 30.9484C9.76142 30.3585 10.0649 28.9908 10.6718 26.2553L10.7746 25.792C11.1048 24.3036 11.2699 23.5594 11.0972 22.8585C11.065 22.7277 11.0242 22.5992 10.9752 22.4738C10.7124 21.8014 10.1485 21.2884 9.02076 20.2624L8.27725 19.586C6.04947 17.5592 4.93558 16.5458 5.25652 15.5915C5.57747 14.6372 7.07736 14.5029 10.0772 14.2342L10.4085 14.2046C12.2414 14.0404 13.1579 13.9583 13.856 13.4393C14.5542 12.9202 14.8967 12.0662 15.5818 10.3583L15.6383 10.2175Z" stroke="#2C63EA" stroke-width="2"/>
</svg>
