<svg width="18" height="15" viewBox="0 0 18 15" fill="none" xmlns="http://www.w3.org/2000/svg">
<path d="M17.884 2.18698C17.233 2.47252 16.5394 2.66178 15.8163 2.75368C16.5602 2.30951 17.128 1.61153 17.3949 0.770235C16.7013 1.18377 15.9355 1.47587 15.1194 1.63888C14.4608 0.937619 13.5221 0.503296 12.4981 0.503296C10.5114 0.503296 8.91197 2.11587 8.91197 4.09275C8.91197 4.37719 8.93603 4.6507 8.99511 4.91107C6.01174 4.76557 3.37189 3.33569 1.59849 1.15752C1.28889 1.69468 1.10728 2.30951 1.10728 2.97139C1.10728 4.21419 1.74728 5.31586 2.70126 5.95367C2.12471 5.94273 1.55911 5.77534 1.07993 5.51169C1.07993 5.52263 1.07993 5.53685 1.07993 5.55107C1.07993 7.29493 2.32382 8.7434 3.95499 9.07707C3.66289 9.15694 3.34453 9.19523 3.01414 9.19523C2.7844 9.19523 2.55247 9.1821 2.33476 9.13396C2.79972 10.5551 4.1191 11.5999 5.68791 11.6338C4.46699 12.5889 2.91678 13.1643 1.23856 13.1643C0.944271 13.1643 0.662016 13.1512 0.379761 13.1151C1.96936 14.1402 3.85325 14.7255 5.88483 14.7255C12.4883 14.7255 16.0985 9.2554 16.0985 4.51395C16.0985 4.35531 16.0931 4.20215 16.0854 4.05008C16.7976 3.54465 17.396 2.91341 17.884 2.18698Z" fill="white"/>
</svg>
