<svg width="72" height="64" viewBox="0 0 72 64" fill="none" xmlns="http://www.w3.org/2000/svg">
<path d="M60.0014 63.0014L5.18879 54.9496C3.292 54.6709 1.98078 52.9039 2.26008 51.0026L9.20866 3.70028C9.48795 1.79897 11.252 0.483666 13.1487 0.762299L67.9614 8.81412C69.8583 9.09277 71.1696 10.8598 70.8903 12.7611L63.9417 60.0635C63.6624 61.9648 61.8984 63.28 60.0014 63.0014Z" fill="#394D93"/>
<path d="M26.9623 39.092L4.49451 35.7915L4.75396 34.411C4.83349 34.4332 4.91551 34.4504 4.99945 34.4628L27.6971 37.797C28.0016 37.8417 28.3 37.8145 28.5752 37.728L28.7561 37.7545C28.629 38.6198 27.8259 39.2188 26.9623 39.092Z" fill="#1D2646"/>
<path d="M27.6971 37.7973L4.99944 34.4631C3.91937 34.3044 3.17261 33.2983 3.33161 32.2158L4.82148 22.0736C4.98053 20.9908 5.98511 20.2419 7.06518 20.4006L29.7628 23.7348C30.8427 23.8935 31.5895 24.8996 31.4305 25.9824L29.9406 36.1246C29.7816 37.207 28.777 37.9559 27.6971 37.7973Z" fill="#394D93"/>
<path d="M27.6972 37.7974C27.6957 37.7775 27.9779 37.862 28.4854 37.7316C28.7338 37.6613 29.0337 37.5222 29.3105 37.2629C29.5827 37.004 29.8277 36.615 29.8991 36.1275C30.1832 34.1417 30.5918 31.2831 31.0966 27.7544C31.1601 27.3129 31.2255 26.8606 31.2922 26.398C31.3231 26.1664 31.3696 25.9314 31.3715 25.7056C31.3732 25.4765 31.3332 25.2449 31.2508 25.0259C31.0884 24.5876 30.75 24.2057 30.3142 23.9931C30.0947 23.8825 29.8618 23.8299 29.6056 23.7966C29.351 23.76 29.0942 23.7227 28.835 23.685C26.7615 23.3837 24.5465 23.0615 22.2161 22.7224C17.5542 22.04 12.4306 21.2901 7.05215 20.5029C6.41259 20.4069 5.7387 20.665 5.33664 21.1642C5.13039 21.4078 4.99501 21.706 4.93764 22.0177C4.88278 22.339 4.83887 22.6752 4.78911 23.0012C4.59573 24.3144 4.40528 25.6077 4.21795 26.8786C4.03039 28.1501 3.84611 29.3983 3.66567 30.6212C3.5807 31.2285 3.47414 31.8462 3.40937 32.4267C3.38655 33.0009 3.63414 33.5754 4.06641 33.9362C4.27927 34.1184 4.53127 34.2519 4.79851 34.3239C5.06109 34.3895 5.36367 34.4162 5.64239 34.4633C6.20999 34.5475 6.77006 34.6305 7.32204 34.7124C8.42578 34.8761 9.49733 35.0352 10.5335 35.1893C12.6049 35.4982 14.5349 35.786 16.2977 36.0486C19.8143 36.5792 22.6628 37.0094 24.6418 37.3076C25.6192 37.4596 26.3814 37.5785 26.9087 37.6603C27.161 37.7018 27.3566 37.7342 27.4976 37.7572C27.6301 37.7803 27.6972 37.7974 27.6972 37.7974C27.6972 37.7974 27.628 37.7941 27.4945 37.7781C27.3529 37.7597 27.1562 37.7344 26.9026 37.7017C26.3741 37.6285 25.6099 37.5229 24.6301 37.3874C22.6489 37.1041 19.797 36.6968 16.2764 36.1936C14.5125 35.9381 12.5812 35.659 10.5086 35.3589C9.47186 35.2086 8.39984 35.0527 7.29565 34.8921C6.74343 34.8118 6.18314 34.7302 5.61532 34.6476C5.32835 34.6 5.05245 34.5795 4.74978 34.5065C4.45567 34.4275 4.17756 34.2814 3.94275 34.081C3.46648 33.6854 3.19108 33.0528 3.21552 32.4187C3.28297 31.7976 3.38569 31.2091 3.47062 30.5926C3.64937 29.3694 3.83196 28.121 4.01785 26.8492C4.20409 25.5781 4.39363 24.2847 4.58593 22.9713C4.63607 22.6417 4.67799 22.317 4.73532 21.98C4.79857 21.6346 4.94951 21.3029 5.17786 21.0324C5.62362 20.4786 6.37278 20.191 7.08218 20.2984C12.4598 21.0912 17.5826 21.8465 22.2438 22.5337C24.5732 22.8795 26.7873 23.2079 28.8599 23.5152C29.119 23.5537 29.3756 23.5922 29.6301 23.6299C29.8834 23.6627 30.1545 23.7243 30.3875 23.8444C30.8609 24.0778 31.2257 24.4937 31.4 24.9695C31.4882 25.2074 31.5307 25.4587 31.5276 25.7068C31.5235 25.9584 31.4748 26.1895 31.4434 26.4202C31.3744 26.8825 31.3068 27.3344 31.2409 27.7756C30.709 31.3007 30.2779 34.1562 29.9786 36.1397C29.8979 36.6464 29.6376 37.0458 29.3522 37.308C29.0623 37.5702 28.7516 37.7066 28.4961 37.7723C28.2379 37.8379 28.0333 37.8303 27.899 37.827C27.7647 37.8109 27.6972 37.7974 27.6972 37.7974Z" fill="#17282F"/>
<path d="M23.3234 35.5611C21.1479 35.2415 19.6439 33.2148 19.9642 31.0344C20.2845 28.8539 22.3079 27.345 24.4834 27.6646C26.6588 27.9842 28.1629 30.0113 27.8426 32.1917C27.5223 34.3721 25.4989 35.8806 23.3234 35.5611Z" fill="#1D2646"/>
<path d="M28.0444 30.8175C27.7241 32.9983 25.7008 34.5069 23.5252 34.1873C21.3497 33.8677 19.8457 31.841 20.1661 29.6602C20.4864 27.4797 22.5097 25.9711 24.6852 26.2907C26.8608 26.6103 28.3648 28.637 28.0444 30.8175Z" fill="#E7E8E5"/>
</svg>
