<svg width="31" height="31" viewBox="0 0 31 31" fill="none" xmlns="http://www.w3.org/2000/svg">
<rect x="19.375" y="16.7916" width="7.75" height="5.16666" fill="#354D87"/>
<path d="M25.8333 9.04163V5.16663H7.10417C5.32075 5.16663 3.875 6.61237 3.875 8.39579C3.875 10.1792 5.32075 11.625 7.10417 11.625H23.25L25.8333 9.04163Z" fill="#354D87"/>
<path d="M27.125 16.7917H27.725H27.125ZM25.1962 10.4735L24.7236 10.1038L25.1962 10.4735ZM24.6818 10.9879L24.3121 10.5153L24.6818 10.9879ZM19.6679 21.6654L20.0922 21.2412L19.6679 21.6654ZM19.6679 17.0846L19.2436 16.6603L19.6679 17.0846ZM26.8321 11.9179L27.2564 11.4936L26.8321 11.9179ZM7.87501 27.125V26.525V27.125ZM4.4608 26.5392L4.03653 26.9635L4.4608 26.5392ZM3.88041 8.80488L4.47933 8.7689L3.88041 8.80488ZM6.69513 11.6196L6.73111 11.0207L6.69513 11.6196ZM25.6414 5.27285L26.0111 4.80028L25.6414 5.27285ZM25.7271 5.35859L25.2546 5.72828L25.7271 5.35859ZM3.88041 7.98679L4.47933 8.02276L3.88041 7.98679ZM6.69513 5.17207L6.65916 4.57314L6.69513 5.17207ZM7.10418 5.76667L24.9107 5.76667V4.56667L7.10418 4.56667V5.76667ZM7.87501 27.725L25.125 27.725V26.525L7.87501 26.525V27.725ZM3.27501 8.39583L3.27501 23.125H4.47501L4.47501 8.39583H3.27501ZM25.125 11.025L7.10417 11.025V12.225L25.125 12.225V11.025ZM26.525 21.9583L26.525 25.125H27.725L27.725 21.9583H26.525ZM26.525 13.625L26.525 16.7917H27.725L27.725 13.625H26.525ZM18.775 18.7917V19.9583H19.975V18.7917H18.775ZM21.375 22.5583H27.125V21.3583H21.375V22.5583ZM26.525 16.7917L26.525 21.9583H27.725L27.725 16.7917H26.525ZM27.125 16.1917H21.375V17.3917H27.125V16.1917ZM20.2976 11.025H19.375V12.225H20.2976V11.025ZM25.2333 6.08929C25.2333 7.29337 25.2324 8.14548 25.1576 8.80026C25.0842 9.44262 24.9462 9.81924 24.7236 10.1038L25.6688 10.8431C26.0833 10.3132 26.264 9.68769 26.3498 8.93653C26.4343 8.19779 26.4333 7.26503 26.4333 6.08929H25.2333ZM20.2976 12.225C21.4734 12.225 22.4061 12.2259 23.1449 12.1415C23.896 12.0556 24.5216 11.875 25.0515 11.4605L24.3121 10.5153C24.0276 10.7379 23.651 10.8758 23.0086 10.9492C22.3538 11.0241 21.5017 11.025 20.2976 11.025V12.225ZM24.7236 10.1038C24.6037 10.2571 24.4655 10.3953 24.3121 10.5153L25.0515 11.4605C25.2815 11.2805 25.4888 11.0732 25.6688 10.8431L24.7236 10.1038ZM18.775 19.9583C18.775 20.4128 18.7737 20.814 18.817 21.1356C18.8625 21.4744 18.9671 21.8132 19.2436 22.0897L20.0922 21.2412C20.0758 21.2248 20.0339 21.1814 20.0063 20.9757C19.9763 20.7526 19.975 20.4467 19.975 19.9583H18.775ZM21.375 21.3583C20.8866 21.3583 20.5807 21.3571 20.3577 21.3271C20.1519 21.2994 20.1085 21.2576 20.0922 21.2412L19.2436 22.0897C19.5201 22.3662 19.8589 22.4708 20.1978 22.5164C20.5194 22.5596 20.9206 22.5583 21.375 22.5583V21.3583ZM19.975 18.7917C19.975 18.3033 19.9763 17.9974 20.0063 17.7743C20.0339 17.5686 20.0758 17.5252 20.0922 17.5088L19.2436 16.6603C18.9671 16.9368 18.8625 17.2756 18.817 17.6144C18.7737 17.936 18.775 18.3372 18.775 18.7917H19.975ZM21.375 16.1917C20.9206 16.1917 20.5194 16.1904 20.1978 16.2336C19.8589 16.2792 19.5201 16.3838 19.2436 16.6603L20.0922 17.5088C20.1085 17.4924 20.1519 17.4506 20.3577 17.4229C20.5807 17.3929 20.8866 17.3917 21.375 17.3917V16.1917ZM25.125 12.225C25.6134 12.225 25.9193 12.2263 26.1423 12.2563C26.3481 12.2839 26.3915 12.3258 26.4078 12.3422L27.2564 11.4936C26.9799 11.2171 26.6411 11.1125 26.3022 11.067C25.9806 11.0237 25.5794 11.025 25.125 11.025V12.225ZM27.725 13.625C27.725 13.1706 27.7263 12.7694 27.683 12.4478C27.6375 12.1089 27.5329 11.7701 27.2564 11.4936L26.4078 12.3422C26.4242 12.3585 26.4661 12.4019 26.4937 12.6077C26.5237 12.8307 26.525 13.1366 26.525 13.625H27.725ZM25.125 27.725C25.5794 27.725 25.9806 27.7263 26.3022 27.683C26.6411 27.6375 26.9799 27.5329 27.2564 27.2564L26.4078 26.4078C26.3915 26.4242 26.3481 26.4661 26.1423 26.4937C25.9193 26.5237 25.6134 26.525 25.125 26.525V27.725ZM26.525 25.125C26.525 25.6134 26.5237 25.9193 26.4937 26.1423C26.4661 26.3481 26.4242 26.3915 26.4078 26.4078L27.2564 27.2564C27.5329 26.9799 27.6375 26.6411 27.683 26.3022C27.7263 25.9806 27.725 25.5794 27.725 25.125H26.525ZM7.87501 26.525C6.91524 26.525 6.25577 26.5237 5.76042 26.4571C5.28232 26.3928 5.04789 26.2778 4.88506 26.1149L4.03653 26.9635C4.45949 27.3864 4.98936 27.5643 5.60052 27.6464C6.19442 27.7263 6.94916 27.725 7.87501 27.725V26.525ZM3.27501 23.125C3.27501 24.0508 3.27374 24.8056 3.35358 25.3995C3.43575 26.0107 3.61358 26.5405 4.03653 26.9635L4.88506 26.1149C4.72223 25.9521 4.60716 25.7177 4.54288 25.2396C4.47628 24.7442 4.47501 24.0848 4.47501 23.125H3.27501ZM3.27501 8.39583C3.27501 8.59991 3.27474 8.72849 3.28149 8.84085L4.47933 8.7689C4.47528 8.70155 4.47501 8.61734 4.47501 8.39583H3.27501ZM7.10417 11.025C6.88267 11.025 6.79846 11.0247 6.73111 11.0207L6.65916 12.2185C6.77152 12.2253 6.9001 12.225 7.10417 12.225V11.025ZM3.28149 8.84085C3.39071 10.6591 4.84088 12.1093 6.65916 12.2185L6.73111 11.0207C5.51892 10.9479 4.55214 9.98109 4.47933 8.7689L3.28149 8.84085ZM24.9107 5.76667C25.0118 5.76667 25.0915 5.7667 25.1601 5.76818C25.2289 5.76968 25.2742 5.77246 25.3058 5.77606C25.3675 5.78312 25.3265 5.78832 25.2717 5.74543L26.0111 4.80028C25.8205 4.6512 25.6126 4.60331 25.442 4.58382C25.2839 4.56575 25.0949 4.56667 24.9107 4.56667V5.76667ZM26.4333 6.08929C26.4333 5.90513 26.4343 5.71608 26.4162 5.55796C26.3967 5.38744 26.3488 5.17946 26.1997 4.9889L25.2546 5.72828C25.2117 5.67346 25.2169 5.63251 25.2239 5.69424C25.2275 5.72576 25.2303 5.77108 25.2318 5.83988C25.2333 5.90853 25.2333 5.98822 25.2333 6.08929H26.4333ZM25.2717 5.74543C25.2653 5.74043 25.2596 5.73467 25.2546 5.72828L26.1997 4.9889C26.1447 4.91861 26.0814 4.85527 26.0111 4.80028L25.2717 5.74543ZM4.47501 8.39583C4.47501 8.17433 4.47528 8.09012 4.47933 8.02276L3.28149 7.95081C3.27474 8.06317 3.27501 8.19176 3.27501 8.39583H4.47501ZM7.10418 4.56667C6.9001 4.56667 6.77152 4.56639 6.65916 4.57314L6.73111 5.77098C6.79846 5.76694 6.88267 5.76667 7.10418 5.76667V4.56667ZM4.47933 8.02276C4.55214 6.81058 5.51892 5.8438 6.73111 5.77098L6.65916 4.57314C4.84088 4.68236 3.39071 6.13254 3.28149 7.95081L4.47933 8.02276Z" fill="white"/>
</svg>
